999
dxfrw 0.6.3
  0
SECTION
  2
HEADER
  9
$ACADVER
  1
AC1021
  9
$DWGCODEPAGE
  3
ANSI_1252
  9
$INSBASE
 10
0
 20
0
 30
0
  9
$EXTMIN
 10
-110
 20
90
 30
0
  9
$EXTMAX
 10
150
 20
319.0884651807325
 30
0
  9
$LIMMIN
 10
0
 20
0
  9
$LIMMAX
 10
420
 20
297
  9
$ORTHOMODE
 70
    0
  9
$REGENMODE
 70
    1
  9
$FILLMODE
 70
    1
  9
$QTEXTMODE
 70
    0
  9
$MIRRTEXT
 70
    0
  9
$LTSCALE
 40
1
  9
$ATTMODE
 70
    0
  9
$TEXTSIZE
 40
2.5
  9
$TRACEWID
 40
15.68
  9
$TEXTSTYLE
  7
STANDARD
  9
$CLAYER
  8
cut
  9
$CELTYPE
  6
BYLAYER
  9
$CECOLOR
 62
  256
  9
$CELTSCALE
 40
1
  9
$DISPSILH
 70
    0
  9
$DIMSCALE
 40
2.5
  9
$DIMASZ
 40
2.5
  9
$DIMEXO
 40
0.625
  9
$DIMDLI
 40
3.75
  9
$DIMRND
 40
0
  9
$DIMDLE
 40
0
  9
$DIMEXE
 40
1.25
  9
$DIMTP
 40
0
  9
$DIMTM
 40
0
  9
$DIMTXT
 40
2.5
  9
$DIMCEN
 40
2.5
  9
$DIMTSZ
 40
0
  9
$DIMTOL
 70
    0
  9
$DIMLIM
 70
    0
  9
$DIMTIH
 70
    0
  9
$DIMTOH
 70
    0
  9
$DIMSE1
 70
    0
  9
$DIMSE2
 70
    0
  9
$DIMTAD
 70
    1
  9
$DIMZIN
 70
    8
  9
$DIMBLK
  1

  9
$DIMASO
 70
    1
  9
$DIMSHO
 70
    1
  9
$DIMPOST
  1

  9
$DIMAPOST
  1

  9
$DIMALT
 70
    0
  9
$DIMALTD
 70
    3
  9
$DIMALTF
 40
0.03937
  9
$DIMLFAC
 40
1
  9
$DIMTOFL
 70
    1
  9
$DIMTVP
 40
0
  9
$DIMTIX
 70
    0
  9
$DIMSOXD
 70
    0
  9
$DIMSAH
 70
    0
  9
$DIMBLK1
  1

  9
$DIMBLK2
  1

  9
$DIMSTYLE
  2
STANDARD
  9
$DIMCLRD
 70
    0
  9
$DIMCLRE
 70
    0
  9
$DIMCLRT
 70
    0
  9
$DIMTFAC
 40
1
  9
$DIMGAP
 40
0.625
  9
$DIMJUST
 70
    0
  9
$DIMSD1
 70
    0
  9
$DIMSD2
 70
    0
  9
$DIMTOLJ
 70
    0
  9
$DIMTZIN
 70
    8
  9
$DIMALTZ
 70
    0
  9
$DIMALTTZ
 70
    0
  9
$DIMUPT
 70
    0
  9
$DIMDEC
 70
    2
  9
$DIMTDEC
 70
    2
  9
$DIMALTU
 70
    2
  9
$DIMALTTD
 70
    3
  9
$DIMTXSTY
  7
STANDARD
  9
$DIMAUNIT
 70
    0
  9
$DIMADEC
 70
    0
  9
$DIMALTRND
 40
0
  9
$DIMAZIN
 70
    0
  9
$DIMDSEP
 70
   44
  9
$DIMATFIT
 70
    3
  9
$DIMFRAC
 70
    0
  9
$DIMLDRBLK
  1
STANDARD
  9
$DIMLUNIT
 70
    2
  9
$DIMLWD
 70
   -2
  9
$DIMLWE
 70
   -2
  9
$DIMTMOVE
 70
    0
  9
$DIMFXL
 40
1
  9
$DIMFXLON
 70
    0
  9
$DIMJOGANG
 40
0.7854
  9
$DIMTFILL
 70
    0
  9
$DIMTFILLCLR
 70
    0
  9
$DIMARCSYM
 70
    0
  9
$DIMLTYPE
  6

  9
$DIMLTEX1
  6

  9
$DIMLTEX2
  6

  9
$LUNITS
 70
    2
  9
$LUPREC
 70
    4
  9
$SKETCHINC
 40
1
  9
$FILLETRAD
 40
0
  9
$AUNITS
 70
    0
  9
$AUPREC
 70
    2
  9
$MENU
  1
.
  9
$ELEVATION
 40
0
  9
$PELEVATION
 40
0
  9
$THICKNESS
 40
0
  9
$LIMCHECK
 70
    0
  9
$CHAMFERA
 40
0
  9
$CHAMFERB
 40
0
  9
$CHAMFERC
 40
0
  9
$CHAMFERD
 40
0
  9
$SKPOLY
 70
    0
  9
$USRTIMER
 70
    1
  9
$ANGBASE
 50
0
  9
$ANGDIR
 70
    0
  9
$PDMODE
 70
   34
  9
$PDSIZE
 40
0
  9
$PLINEWID
 40
0
  9
$SPLFRAME
 70
    0
  9
$SPLINETYPE
 70
    2
  9
$SPLINESEGS
 70
    8
  9
$HANDSEED
  5
20000
  9
$SURFTAB1
 70
    6
  9
$SURFTAB2
 70
    6
  9
$SURFTYPE
 70
    6
  9
$SURFU
 70
    6
  9
$SURFV
 70
    6
  9
$UCSBASE
  2

  9
$UCSNAME
  2

  9
$UCSORG
 10
0
 20
0
 30
0
  9
$UCSXDIR
 10
1
 20
0
 30
0
  9
$UCSYDIR
 10
0
 20
1
 30
0
  9
$UCSORTHOREF
  2

  9
$UCSORTHOVIEW
 70
    0
  9
$UCSORGTOP
 10
0
 20
0
 30
0
  9
$UCSORGBOTTOM
 10
0
 20
0
 30
0
  9
$UCSORGLEFT
 10
0
 20
0
 30
0
  9
$UCSORGRIGHT
 10
0
 20
0
 30
0
  9
$UCSORGFRONT
 10
0
 20
0
 30
0
  9
$UCSORGBACK
 10
0
 20
0
 30
0
  9
$PUCSBASE
  2

  9
$PUCSNAME
  2

  9
$PUCSORG
 10
0
 20
0
 30
0
  9
$PUCSXDIR
 10
1
 20
0
 30
0
  9
$PUCSYDIR
 10
0
 20
1
 30
0
  9
$PUCSORTHOREF
  2

  9
$PUCSORTHOVIEW
 70
    0
  9
$PUCSORGTOP
 10
0
 20
0
 30
0
  9
$PUCSORGBOTTOM
 10
0
 20
0
 30
0
  9
$PUCSORGLEFT
 10
0
 20
0
 30
0
  9
$PUCSORGRIGHT
 10
0
 20
0
 30
0
  9
$PUCSORGFRONT
 10
0
 20
0
 30
0
  9
$PUCSORGBACK
 10
0
 20
0
 30
0
  9
$USERI1
 70
    0
  9
$USERI2
 70
    0
  9
$USERI3
 70
    0
  9
$USERI4
 70
    0
  9
$USERI5
 70
    0
  9
$USERR1
 40
0
  9
$USERR2
 40
0
  9
$USERR3
 40
0
  9
$USERR4
 40
0
  9
$USERR5
 40
0
  9
$WORLDVIEW
 70
    1
  9
$SHADEDGE
 70
    3
  9
$SHADEDIF
 70
   70
  9
$TILEMODE
 70
    1
  9
$MAXACTVP
 70
   64
  9
$PINSBASE
 10
197.5
 20
-38.66796875
 30
0
  9
$PLIMCHECK
 70
    0
  9
$PEXTMIN
 10
0
 20
0
 30
0
  9
$PEXTMAX
 10
0
 20
0
 30
0
  9
$GRIDMODE
 70
    1
  9
$SNAPSTYLE
 70
    0
  9
$PLIMMIN
 10
0
 20
0
  9
$PLIMMAX
 10
210
 20
297
  9
$UNITMODE
 70
    0
  9
$VISRETAIN
 70
    1
  9
$PLINEGEN
 70
    0
  9
$PSLTSCALE
 70
    1
  9
$TREEDEPTH
 70
 3020
  9
$CMLSTYLE
  2
Standard
  9
$CMLJUST
 70
    0
  9
$CMLSCALE
 40
20
  9
$PROXYGRAPHICS
 70
    1
  9
$MEASUREMENT
 70
    1
  9
$CELWEIGHT
370
   -1
  9
$ENDCAPS
280
    0
  9
$JOINSTYLE
280
    0
  9
$LWDISPLAY
290
    0
  9
$INSUNITS
 70
    4
  9
$HYPERLINKBASE
  1

  9
$STYLESHEET
  1

  9
$XEDIT
290
    1
  9
$CEPSNTYPE
380
    0
  9
$PSTYLEMODE
290
    1
  9
$EXTNAMES
290
    1
  9
$PSVPSCALE
 40
0.925000925000925
  9
$OLESTARTUP
290
    0
  9
$SORTENTS
280
  127
  9
$INDEXCTL
280
    0
  9
$HIDETEXT
280
    1
  9
$XCLIPFRAME
290
    0
  9
$HALOGAP
280
    0
  9
$OBSCOLOR
 70
  257
  9
$OBSLTYPE
280
    0
  9
$INTERSECTIONDISPLAY
280
    0
  9
$INTERSECTIONCOLOR
 70
  257
  9
$DIMASSOC
280
    1
  9
$PROJECTNAME
  1

  9
$CAMERADISPLAY
290
    0
  9
$LENSLENGTH
 40
50
  9
$CAMERAHEIGHT
 40
0
  9
$STEPSPERSEC
 40
2
  9
$STEPSIZE
 40
50
  9
$3DDWFPREC
 40
2
  9
$PSOLWIDTH
 40
5
  9
$PSOLHEIGHT
 40
80
  9
$LOFTANG1
 40
1.570796326794897
  9
$LOFTANG2
 40
1.570796326794897
  9
$LOFTMAG1
 40
0
  9
$LOFTMAG2
 40
0
  9
$LOFTPARAM
 70
    7
  9
$LOFTNORMALS
280
    1
  9
$LATITUDE
 40
1
  9
$LONGITUDE
 40
1
  9
$NORTHDIRECTION
 40
0
  9
$TIMEZONE
 70
-8000
  9
$LIGHTGLYPHDISPLAY
280
    1
  9
$TILEMODELIGHTSYNCH
280
    1
  9
$SOLIDHIST
280
    1
  9
$SHOWHIST
280
    1
  9
$DWFFRAME
280
    2
  9
$DGNFRAME
280
    0
  9
$REALWORLDSCALE
290
    1
  9
$INTERFERECOLOR
 62
    1
  9
$CSHADOW
280
    0
  9
$SHADOWPLANELOCATION
 40
0
  0
ENDSEC
  0
SECTION
  2
CLASSES
  0
ENDSEC
  0
SECTION
  2
TABLES
  0
TABLE
  2
VPORT
  5
8
330
0
100
AcDbSymbolTable
 70
    1
  0
VPORT
  5
31
330
2
100
AcDbSymbolTableRecord
100
AcDbViewportTableRecord
  2
*ACTIVE
 70
    0
 10
0
 20
0
 11
1
 21
1
 12
143.7700014159677
 22
157.5940400136569
 13
0
 23
0
 14
10
 24
10
 15
10
 25
10
 16
0
 26
0
 36
1
 17
0
 27
0
 37
0
 40
227.504178064828
 41
1.819444444444444
 42
50
 43
0
 44
0
 50
0
 51
0
 71
    0
 72
  100
 73
    1
 74
    3
 75
    0
 76
    1
 77
    0
 78
    0
281
    0
 65
    1
110
0
120
0
130
0
111
1
121
0
131
0
112
0
122
1
132
0
 79
    0
146
0
348
10020
 60
    7
 61
    5
292
1
282
    1
141
0
142
0
 63
  250
421
3358443
  0
ENDTAB
  0
TABLE
  2
LTYPE
  5
5
330
0
100
AcDbSymbolTable
 70
    4
  0
LTYPE
  5
14
330
5
100
AcDbSymbolTableRecord
100
AcDbLinetypeTableRecord
  2
ByBlock
 70
    0
  3

 72
   65
 73
    0
 40
0
  0
LTYPE
  5
15
330
5
100
AcDbSymbolTableRecord
100
AcDbLinetypeTableRecord
  2
ByLayer
 70
    0
  3

 72
   65
 73
    0
 40
0
  0
LTYPE
  5
16
330
5
100
AcDbSymbolTableRecord
100
AcDbLinetypeTableRecord
  2
Continuous
 70
    0
  3
Solid line
 72
   65
 73
    0
 40
0
  0
LTYPE
  5
32
330
5
100
AcDbSymbolTableRecord
100
AcDbLinetypeTableRecord
  2
DOT
 70
    0
  3
Dot . . . . . . . . . . . . . . . . . . . . . .
 72
   65
 73
    2
 40
6.35
 49
0
 74
    0
 49
-6.35
 74
    0
  0
LTYPE
  5
33
330
5
100
AcDbSymbolTableRecord
100
AcDbLinetypeTableRecord
  2
DOTTINY
 70
    0
  3
Dot (.15x) .....................................
 72
   65
 73
    2
 40
0.9525
 49
0
 74
    0
 49
-0.9525
 74
    0
  0
LTYPE
  5
34
330
5
100
AcDbSymbolTableRecord
100
AcDbLinetypeTableRecord
  2
DOT2
 70
    0
  3
Dot (.5x) .....................................
 72
   65
 73
    2
 40
3.175
 49
0
 74
    0
 49
-3.175
 74
    0
  0
LTYPE
  5
35
330
5
100
AcDbSymbolTableRecord
100
AcDbLinetypeTableRecord
  2
DOTX2
 70
    0
  3
Dot (2x) .  .  .  .  .  .  .  .  .  .  .  .  .
 72
   65
 73
    2
 40
12.7
 49
0
 74
    0
 49
-12.7
 74
    0
  0
LTYPE
  5
36
330
5
100
AcDbSymbolTableRecord
100
AcDbLinetypeTableRecord
  2
DASHED
 70
    0
  3
Dashed _ _ _ _ _ _ _ _ _ _ _ _ _ _ _ _ _
 72
   65
 73
    2
 40
19.05
 49
12.7
 74
    0
 49
-6.35
 74
    0
  0
LTYPE
  5
37
330
5
100
AcDbSymbolTableRecord
100
AcDbLinetypeTableRecord
  2
DASHEDTINY
 70
    0
  3
Dashed (.15x) _ _ _ _ _ _ _ _ _ _ _ _ _ _ _ _ _
 72
   65
 73
    2
 40
2.8575
 49
1.905
 74
    0
 49
-0.9525
 74
    0
  0
LTYPE
  5
38
330
5
100
AcDbSymbolTableRecord
100
AcDbLinetypeTableRecord
  2
DASHED2
 70
    0
  3
Dashed (.5x) _ _ _ _ _ _ _ _ _ _ _ _ _ _ _ _ _
 72
   65
 73
    2
 40
9.524999999999999
 49
6.35
 74
    0
 49
-3.175
 74
    0
  0
LTYPE
  5
39
330
5
100
AcDbSymbolTableRecord
100
AcDbLinetypeTableRecord
  2
DASHEDX2
 70
    0
  3
Dashed (2x) ____  ____  ____  ____  ____  ___
 72
   65
 73
    2
 40
38.09999999999999
 49
25.4
 74
    0
 49
-12.7
 74
    0
  0
LTYPE
  5
3A
330
5
100
AcDbSymbolTableRecord
100
AcDbLinetypeTableRecord
  2
DASHDOT
 70
    0
  3
Dash dot __ . __ . __ . __ . __ . __ . __ . __
 72
   65
 73
    4
 40
25.4
 49
12.7
 74
    0
 49
-6.35
 74
    0
 49
0
 74
    0
 49
-6.35
 74
    0
  0
LTYPE
  5
3B
330
5
100
AcDbSymbolTableRecord
100
AcDbLinetypeTableRecord
  2
DASHDOTTINY
 70
    0
  3
Dash dot (.15x) _._._._._._._._._._._._._._._.
 72
   65
 73
    4
 40
3.81
 49
1.905
 74
    0
 49
-0.9525
 74
    0
 49
0
 74
    0
 49
-0.9525
 74
    0
  0
LTYPE
  5
3C
330
5
100
AcDbSymbolTableRecord
100
AcDbLinetypeTableRecord
  2
DASHDOT2
 70
    0
  3
Dash dot (.5x) _._._._._._._._._._._._._._._.
 72
   65
 73
    4
 40
12.7
 49
6.35
 74
    0
 49
-3.175
 74
    0
 49
0
 74
    0
 49
-3.175
 74
    0
  0
LTYPE
  5
3D
330
5
100
AcDbSymbolTableRecord
100
AcDbLinetypeTableRecord
  2
DASHDOTX2
 70
    0
  3
Dash dot (2x) ____  .  ____  .  ____  .  ___
 72
   65
 73
    4
 40
50.8
 49
25.4
 74
    0
 49
-12.7
 74
    0
 49
0
 74
    0
 49
-12.7
 74
    0
  0
LTYPE
  5
3E
330
5
100
AcDbSymbolTableRecord
100
AcDbLinetypeTableRecord
  2
DIVIDE
 70
    0
  3
Divide ____ . . ____ . . ____ . . ____ . . ____
 72
   65
 73
    6
 40
31.75
 49
12.7
 74
    0
 49
-6.35
 74
    0
 49
0
 74
    0
 49
-6.35
 74
    0
 49
0
 74
    0
 49
-6.35
 74
    0
  0
LTYPE
  5
3F
330
5
100
AcDbSymbolTableRecord
100
AcDbLinetypeTableRecord
  2
DIVIDETINY
 70
    0
  3
Divide (.15x) __..__..__..__..__..__..__..__.._
 72
   65
 73
    6
 40
4.7625
 49
1.905
 74
    0
 49
-0.9525
 74
    0
 49
0
 74
    0
 49
-0.9525
 74
    0
 49
0
 74
    0
 49
-0.9525
 74
    0
  0
LTYPE
  5
40
330
5
100
AcDbSymbolTableRecord
100
AcDbLinetypeTableRecord
  2
DIVIDE2
 70
    0
  3
Divide (.5x) __..__..__..__..__..__..__..__.._
 72
   65
 73
    6
 40
15.875
 49
6.35
 74
    0
 49
-3.175
 74
    0
 49
0
 74
    0
 49
-3.175
 74
    0
 49
0
 74
    0
 49
-3.175
 74
    0
  0
LTYPE
  5
41
330
5
100
AcDbSymbolTableRecord
100
AcDbLinetypeTableRecord
  2
DIVIDEX2
 70
    0
  3
Divide (2x) ________  .  .  ________  .  .  _
 72
   65
 73
    6
 40
63.5
 49
25.4
 74
    0
 49
-12.7
 74
    0
 49
0
 74
    0
 49
-12.7
 74
    0
 49
0
 74
    0
 49
-12.7
 74
    0
  0
LTYPE
  5
42
330
5
100
AcDbSymbolTableRecord
100
AcDbLinetypeTableRecord
  2
BORDER
 70
    0
  3
Border __ __ . __ __ . __ __ . __ __ . __ __ .
 72
   65
 73
    6
 40
44.45
 49
12.7
 74
    0
 49
-6.35
 74
    0
 49
12.7
 74
    0
 49
-6.35
 74
    0
 49
0
 74
    0
 49
-6.35
 74
    0
  0
LTYPE
  5
43
330
5
100
AcDbSymbolTableRecord
100
AcDbLinetypeTableRecord
  2
BORDERTINY
 70
    0
  3
Border (.15x) __.__.__.__.__.__.__.__.__.__.__.
 72
   65
 73
    6
 40
6.6675
 49
1.905
 74
    0
 49
-0.9525
 74
    0
 49
1.905
 74
    0
 49
-0.9525
 74
    0
 49
0
 74
    0
 49
-0.9525
 74
    0
  0
LTYPE
  5
44
330
5
100
AcDbSymbolTableRecord
100
AcDbLinetypeTableRecord
  2
BORDER2
 70
    0
  3
Border (.5x) __.__.__.__.__.__.__.__.__.__.__.
 72
   65
 73
    6
 40
22.225
 49
6.35
 74
    0
 49
-3.175
 74
    0
 49
6.35
 74
    0
 49
-3.175
 74
    0
 49
0
 74
    0
 49
-3.175
 74
    0
  0
LTYPE
  5
45
330
5
100
AcDbSymbolTableRecord
100
AcDbLinetypeTableRecord
  2
BORDERX2
 70
    0
  3
Border (2x) ____  ____  .  ____  ____  .  ___
 72
   65
 73
    6
 40
88.89999999999999
 49
25.4
 74
    0
 49
-12.7
 74
    0
 49
25.4
 74
    0
 49
-12.7
 74
    0
 49
0
 74
    0
 49
-12.7
 74
    0
  0
LTYPE
  5
46
330
5
100
AcDbSymbolTableRecord
100
AcDbLinetypeTableRecord
  2
CENTER
 70
    0
  3
Center ____ _ ____ _ ____ _ ____ _ ____ _ ____
 72
   65
 73
    4
 40
50.8
 49
31.75
 74
    0
 49
-6.35
 74
    0
 49
6.35
 74
    0
 49
-6.35
 74
    0
  0
LTYPE
  5
47
330
5
100
AcDbSymbolTableRecord
100
AcDbLinetypeTableRecord
  2
CENTERTINY
 70
    0
  3
Center (.15x) ___ _ ___ _ ___ _ ___ _ ___ _ ___
 72
   65
 73
    4
 40
7.62
 49
4.7625
 74
    0
 49
-0.9525
 74
    0
 49
0.9525
 74
    0
 49
-0.9525
 74
    0
  0
LTYPE
  5
48
330
5
100
AcDbSymbolTableRecord
100
AcDbLinetypeTableRecord
  2
CENTER2
 70
    0
  3
Center (.5x) ___ _ ___ _ ___ _ ___ _ ___ _ ___
 72
   65
 73
    4
 40
28.575
 49
19.05
 74
    0
 49
-3.175
 74
    0
 49
3.175
 74
    0
 49
-3.175
 74
    0
  0
LTYPE
  5
49
330
5
100
AcDbSymbolTableRecord
100
AcDbLinetypeTableRecord
  2
CENTERX2
 70
    0
  3
Center (2x) ________  __  ________  __  _____
 72
   65
 73
    4
 40
101.6
 49
63.5
 74
    0
 49
-12.7
 74
    0
 49
12.7
 74
    0
 49
-12.7
 74
    0
  0
ENDTAB
  0
TABLE
  2
LAYER
  5
2
330
0
100
AcDbSymbolTable
 70
    1
  0
LAYER
  5
10
330
2
100
AcDbSymbolTableRecord
100
AcDbLayerTableRecord
  2
0
 70
    1
 62
    3
  6
CONTINUOUS
370
    0
390
F
  0
LAYER
  5
4A
330
2
100
AcDbSymbolTableRecord
100
AcDbLayerTableRecord
  2
cut
 70
    0
 62
    1
  6
CONTINUOUS
370
    0
390
F
  0
LAYER
  5
4B
330
2
100
AcDbSymbolTableRecord
100
AcDbLayerTableRecord
  2
dimention
 70
    1
 62
    2
  6
CONTINUOUS
370
    0
390
F
  0
LAYER
  5
4C
330
2
100
AcDbSymbolTableRecord
100
AcDbLayerTableRecord
  2
pcb
 70
    1
 62
    7
  6
CONTINUOUS
370
    0
390
F
  0
ENDTAB
  0
TABLE
  2
STYLE
  5
3
330
0
100
AcDbSymbolTable
 70
    3
  0
STYLE
  5
4D
330
2
100
AcDbSymbolTableRecord
100
AcDbTextStyleTableRecord
  2
Standard
 70
    0
 40
0
 41
1
 50
0
 71
    0
 42
1
  3
txt
  4

  0
ENDTAB
  0
TABLE
  2
VIEW
  5
6
330
0
100
AcDbSymbolTable
 70
    0
  0
ENDTAB
  0
TABLE
  2
UCS
  5
7
330
0
100
AcDbSymbolTable
 70
    0
  0
ENDTAB
  0
TABLE
  2
APPID
  5
9
330
0
100
AcDbSymbolTable
 70
    1
  0
APPID
  5
12
330
9
100
AcDbSymbolTableRecord
100
AcDbRegAppTableRecord
  2
ACAD
 70
    0
  0
APPID
  5
4E
330
9
100
AcDbSymbolTableRecord
100
AcDbRegAppTableRecord
  2
LibreCad
 70
    0
  0
ENDTAB
  0
TABLE
  2
DIMSTYLE
  5
A
330
0
100
AcDbSymbolTable
 70
    1
100
AcDbDimStyleTable
 71
    1
  0
DIMSTYLE
105
4F
330
A
100
AcDbSymbolTableRecord
100
AcDbDimStyleTableRecord
  2
Standard
 70
    0
 40
2.5
 41
2.5
 42
0.625
 43
0.38
 44
1.25
 45
0
 46
0
 47
0
 48
0
 49
1
140
2.5
141
0.09
142
0
143
25.4
144
1
145
0
146
1
147
0.625
148
0
 71
    0
 72
    0
 73
    0
 74
    1
 75
    0
 76
    0
 77
    0
 78
    8
 79
    0
170
    0
171
    2
172
    0
173
    0
174
    0
175
    0
176
    0
177
    0
178
    0
179
    0
271
    2
272
    4
273
    2
274
    2
275
    0
276
    0
277
    2
278
   44
279
    0
280
    0
281
    0
282
    0
283
    1
284
    0
285
    0
286
    0
288
    0
289
    3
340
STANDARD
341

371
   -2
372
   -2
  0
ENDTAB
  0
TABLE
  2
BLOCK_RECORD
  5
1
330
0
100
AcDbSymbolTable
 70
    2
  0
BLOCK_RECORD
  5
1F
330
1
100
AcDbSymbolTableRecord
100
AcDbBlockTableRecord
  2
*Model_Space
 70
    0
280
    1
281
    0
  0
BLOCK_RECORD
  5
1E
330
1
100
AcDbSymbolTableRecord
100
AcDbBlockTableRecord
  2
*Paper_Space
 70
    0
280
    1
281
    0
  0
BLOCK_RECORD
  5
50
330
1
100
AcDbSymbolTableRecord
100
AcDbBlockTableRecord
  2
*D3
 70
    0
280
    1
281
    0
  0
BLOCK_RECORD
  5
53
330
1
100
AcDbSymbolTableRecord
100
AcDbBlockTableRecord
  2
*D2
 70
    0
280
    1
281
    0
  0
BLOCK_RECORD
  5
56
330
1
100
AcDbSymbolTableRecord
100
AcDbBlockTableRecord
  2
*D1
 70
    0
280
    1
281
    0
  0
BLOCK_RECORD
  5
59
330
1
100
AcDbSymbolTableRecord
100
AcDbBlockTableRecord
  2
D10
 70
    0
280
    1
281
    0
  0
BLOCK_RECORD
  5
5C
330
1
100
AcDbSymbolTableRecord
100
AcDbBlockTableRecord
  2
D11
 70
    0
280
    1
281
    0
  0
BLOCK_RECORD
  5
5F
330
1
100
AcDbSymbolTableRecord
100
AcDbBlockTableRecord
  2
D12
 70
    0
280
    1
281
    0
  0
BLOCK_RECORD
  5
62
330
1
100
AcDbSymbolTableRecord
100
AcDbBlockTableRecord
  2
pololu
 70
    0
280
    1
281
    0
  0
ENDTAB
  0
ENDSEC
  0
SECTION
  2
BLOCKS
  0
BLOCK
  5
20
330
1F
100
AcDbEntity
  8
0
100
AcDbBlockBegin
  2
*Model_Space
 70
    0
 10
0
 20
0
 30
0
  3
*Model_Space
  1

  0
ENDBLK
  5
21
330
1F
100
AcDbEntity
  8
0
100
AcDbBlockEnd
  0
BLOCK
  5
1C
330
1B
100
AcDbEntity
  8
0
100
AcDbBlockBegin
  2
*Paper_Space
 70
    0
 10
0
 20
0
 30
0
  3
*Paper_Space
  1

  0
ENDBLK
  5
1D
330
1F
100
AcDbEntity
  8
0
100
AcDbBlockEnd
  0
BLOCK
  5
51
330
50
100
AcDbEntity
  8
0
100
AcDbBlockBegin
  2
*D3
 70
    1
 10
0
 20
0
  3
*D3
  1

  0
LINE
  5
65
100
AcDbEntity
  8
dimention
  6
ByBlock
 62
    0
370
   -2
100
AcDbLine
 10
-80
 20
88.4375
 11
-80
 21
76.875
  0
LINE
  5
66
100
AcDbEntity
  8
dimention
  6
ByBlock
 62
    0
370
   -2
100
AcDbLine
 10
-20.00000000000001
 20
88.4375
 11
-20
 21
76.875
  0
LINE
  5
67
100
AcDbEntity
  8
dimention
  6
ByBlock
 62
    0
370
   -2
100
AcDbLine
 10
-80
 20
80
 11
-20
 21
80
  0
SOLID
  5
68
100
AcDbEntity
  8
dimention
  6
ByBlock
 62
    0
370
   -2
100
AcDbTrace
 10
-80
 20
80
 30
0
 11
-73.75
 21
81.04071164443211
 31
0
 12
-73.75
 22
78.95928835556789
 32
0
 13
-73.75
 23
78.95928835556789
 33
0
  0
SOLID
  5
69
100
AcDbEntity
  8
dimention
  6
ByBlock
 62
    0
370
   -2
100
AcDbTrace
 10
-20
 20
80
 30
0
 11
-26.25
 21
78.95928835556789
 31
0
 12
-26.25
 22
81.04071164443211
 32
0
 13
-26.25
 23
81.04071164443211
 33
0
  0
MTEXT
  5
6A
100
AcDbEntity
  8
dimention
  6
CONTINUOUS
 62
    0
370
   -2
100
AcDbMText
 10
-50.00000000000001
 20
84.6875
 30
0
 40
6.25
 41
7.638888888889277
 71
    5
 72
    1
  1
60
  7
STANDARD
210
0
220
0
230
1
 50
0
 73
    2
 44
1
  0
ENDBLK
  5
52
330
50
100
AcDbEntity
  8
0
100
AcDbBlockEnd
  0
BLOCK
  5
54
330
53
100
AcDbEntity
  8
0
100
AcDbBlockBegin
  2
*D2
 70
    1
 10
0
 20
0
  3
*D2
  1

  0
LINE
  5
6B
100
AcDbEntity
  8
dimention
  6
ByBlock
 62
    0
370
   -2
100
AcDbLine
 10
-51.5625
 20
310
 11
-133.125
 21
310
  0
LINE
  5
6C
100
AcDbEntity
  8
dimention
  6
ByBlock
 62
    0
370
   -2
100
AcDbLine
 10
-51.56250000000001
 20
90
 11
-133.125
 21
90.00000000000001
  0
LINE
  5
6D
100
AcDbEntity
  8
dimention
  6
ByBlock
 62
    0
370
   -2
100
AcDbLine
 10
-130
 20
310
 11
-130
 21
90.00000000000001
  0
SOLID
  5
6E
100
AcDbEntity
  8
dimention
  6
ByBlock
 62
    0
370
   -2
100
AcDbTrace
 10
-130
 20
310
 30
0
 11
-128.9592883555679
 21
303.75
 31
0
 12
-131.0407116444321
 22
303.75
 32
0
 13
-131.0407116444321
 23
303.75
 33
0
  0
SOLID
  5
6F
100
AcDbEntity
  8
dimention
  6
ByBlock
 62
    0
370
   -2
100
AcDbTrace
 10
-130
 20
90.00000000000001
 30
0
 11
-131.0407116444321
 21
96.25000000000001
 31
0
 12
-128.9592883555679
 22
96.25000000000001
 32
0
 13
-128.9592883555679
 23
96.25000000000001
 33
0
  0
MTEXT
  5
70
100
AcDbEntity
  8
dimention
  6
CONTINUOUS
 62
    0
370
   -2
100
AcDbMText
 10
-134.6875
 20
200.0000000000001
 30
0
 40
6.25
 41
12.5
 71
    5
 72
    1
  1
220
  7
STANDARD
210
0
220
0
230
1
 50
90
 73
    2
 44
1
  0
ENDBLK
  5
55
330
53
100
AcDbEntity
  8
0
100
AcDbBlockEnd
  0
BLOCK
  5
57
330
56
100
AcDbEntity
  8
0
100
AcDbBlockBegin
  2
*D1
 70
    1
 10
0
 20
0
  3
*D1
  1

  0
LINE
  5
71
100
AcDbEntity
  8
dimention
  6
ByBlock
 62
    0
370
   -2
100
AcDbLine
 10
-96.5
 20
311.5625
 11
-96.5
 21
323.125
  0
LINE
  5
72
100
AcDbEntity
  8
dimention
  6
ByBlock
 62
    0
370
   -2
100
AcDbLine
 10
-3.5
 20
311.5625
 11
-3.5
 21
323.125
  0
LINE
  5
73
100
AcDbEntity
  8
dimention
  6
ByBlock
 62
    0
370
   -2
100
AcDbLine
 10
-96.5
 20
320
 11
-3.5
 21
320
  0
SOLID
  5
74
100
AcDbEntity
  8
dimention
  6
ByBlock
 62
    0
370
   -2
100
AcDbTrace
 10
-96.5
 20
320
 30
0
 11
-90.25
 21
321.0407116444321
 31
0
 12
-90.25
 22
318.9592883555679
 32
0
 13
-90.25
 23
318.9592883555679
 33
0
  0
SOLID
  5
75
100
AcDbEntity
  8
dimention
  6
ByBlock
 62
    0
370
   -2
100
AcDbTrace
 10
-3.5
 20
320
 30
0
 11
-9.75
 21
318.9592883555679
 31
0
 12
-9.75
 22
321.0407116444321
 32
0
 13
-9.75
 23
321.0407116444321
 33
0
  0
MTEXT
  5
76
100
AcDbEntity
  8
dimention
  6
CONTINUOUS
 62
    0
370
   -2
100
AcDbMText
 10
-50
 20
324.6875
 30
0
 40
6.25
 41
7.638888888889664
 71
    5
 72
    1
  1
93
  7
STANDARD
210
0
220
0
230
1
 50
0
 73
    2
 44
1
  0
ENDBLK
  5
58
330
56
100
AcDbEntity
  8
0
100
AcDbBlockEnd
  0
BLOCK
  5
5A
330
59
100
AcDbEntity
  8
0
100
AcDbBlockBegin
  2
D10
 70
    0
 10
0
 20
0
  3
D10
  1

  0
CIRCLE
  5
77
100
AcDbEntity
  8
0
  6
ByLayer
 62
  256
370
   -1
100
AcDbCircle
 10
0
 20
0
 40
0.005
  0
ENDBLK
  5
5B
330
59
100
AcDbEntity
  8
0
100
AcDbBlockEnd
  0
BLOCK
  5
5D
330
5C
100
AcDbEntity
  8
0
100
AcDbBlockBegin
  2
D11
 70
    0
 10
0
 20
0
  3
D11
  1

  0
CIRCLE
  5
78
100
AcDbEntity
  8
0
  6
ByLayer
 62
  256
370
   -1
100
AcDbCircle
 10
0
 20
0
 40
0.0025
  0
ENDBLK
  5
5E
330
5C
100
AcDbEntity
  8
0
100
AcDbBlockEnd
  0
BLOCK
  5
60
330
5F
100
AcDbEntity
  8
0
100
AcDbBlockBegin
  2
D12
 70
    0
 10
0
 20
0
  3
D12
  1

  0
CIRCLE
  5
79
100
AcDbEntity
  8
0
  6
ByLayer
 62
  256
370
   -1
100
AcDbCircle
 10
0
 20
0
 40
0.003
  0
ENDBLK
  5
61
330
5F
100
AcDbEntity
  8
0
100
AcDbBlockEnd
  0
BLOCK
  5
63
330
62
100
AcDbEntity
  8
0
100
AcDbBlockBegin
  2
pololu
 70
    0
 10
0
 20
0
  3
pololu
  1

  0
ENDBLK
  5
64
330
62
100
AcDbEntity
  8
0
100
AcDbBlockEnd
  0
ENDSEC
  0
SECTION
  2
ENTITIES
  0
INSERT
  5
7A
100
AcDbEntity
  8
pcb
  6
ByLayer
 62
  256
370
   -1
100
AcDbBlockReference
  2
pololu
 10
-1.33199999999999
 20
199.078
 30
0
 41
1
 42
1
 43
0
 50
270
 70
    1
 71
    1
 44
0
 45
0
  0
LINE
  5
7B
100
AcDbEntity
  8
0
  6
ByLayer
 62
  256
370
   -1
100
AcDbLine
 10
-96.5
 20
310
 11
-96.5
 21
300
  0
LINE
  5
7C
100
AcDbEntity
  8
0
  6
ByLayer
 62
  256
370
   -1
100
AcDbLine
 10
-3.5
 20
310
 11
-3.5
 21
300
  0
LINE
  5
7D
100
AcDbEntity
  8
0
  6
ByLayer
 62
  256
370
   -1
100
AcDbLine
 10
-50.00000000000001
 20
90
 11
-80.00000000000001
 21
90
  0
LINE
  5
7E
100
AcDbEntity
  8
0
  6
ByLayer
 62
  256
370
   -1
100
AcDbLine
 10
-50.00000000000001
 20
90
 11
-20.00000000000001
 21
90
  0
LINE
  5
7F
100
AcDbEntity
  8
0
  6
ByLayer
 62
  256
370
   -1
100
AcDbLine
 10
-96.5
 20
300
 11
-80.00000000000001
 21
90
  0
LINE
  5
80
100
AcDbEntity
  8
0
  6
ByLayer
 62
  256
370
   -1
100
AcDbLine
 10
-20.00000000000001
 20
90
 11
-3.5
 21
300
  0
DIMENSION
  5
81
100
AcDbEntity
  8
dimention
  6
ByLayer
 62
  256
370
   -1
100
AcDbDimension
  2
*D1
 10
-3.5
 20
320
 30
0
 11
-50
 21
324.6875
 31
0
 70
   33
 71
    5
 72
    0
  3
Standard
 53
0
210
0
220
0
230
1
100
AcDbAlignedDimension
 13
-96.5
 23
310
 33
0
 14
-3.5
 24
310
 34
0
  0
DIMENSION
  5
82
100
AcDbEntity
  8
dimention
  6
ByLayer
 62
  256
370
   -1
100
AcDbDimension
  2
*D2
 10
-130
 20
90
 30
0
 11
-134.6875
 21
200.0000000000001
 31
0
 70
   33
 71
    5
 72
    0
  3
Standard
 53
0
210
0
220
0
230
1
100
AcDbAlignedDimension
 13
-50
 23
310
 33
0
 14
-50.00000000000001
 24
90
 34
0
  0
DIMENSION
  5
83
100
AcDbEntity
  8
dimention
  6
ByLayer
 62
  256
370
   -1
100
AcDbDimension
  2
*D3
 10
-20
 20
80
 30
0
 11
-50.00000000000001
 21
84.6875
 31
0
 70
   33
 71
    5
 72
    0
  3
Standard
 53
0
210
0
220
0
230
1
100
AcDbAlignedDimension
 13
-80
 23
90
 33
0
 14
-20.00000000000001
 24
90
 34
0
  0
LINE
  5
84
100
AcDbEntity
  8
pcb
  6
ByLayer
 62
  256
370
   -1
100
AcDbLine
 10
5
 20
272
 11
5
 21
298
  0
LINE
  5
85
100
AcDbEntity
  8
pcb
  6
ByLayer
 62
  256
370
   -1
100
AcDbLine
 10
5
 20
298
 11
-105
 21
298
  0
LINE
  5
86
100
AcDbEntity
  8
pcb
  6
ByLayer
 62
  256
370
   -1
100
AcDbLine
 10
5
 20
272
 11
-105
 21
272
  0
LINE
  5
87
100
AcDbEntity
  8
pcb
  6
ByLayer
 62
  256
370
   -1
100
AcDbLine
 10
-105
 20
298
 11
-105
 21
272
  0
LINE
  5
88
100
AcDbEntity
  8
pcb
  6
ByLayer
 62
  256
370
   -1
100
AcDbLine
 10
7.999999999999972
 20
169
 11
8
 21
269
  0
LINE
  5
89
100
AcDbEntity
  8
pcb
  6
ByLayer
 62
  256
370
   -1
100
AcDbLine
 10
7.999999999999972
 20
169
 11
-72.00000000000001
 21
169
  0
LINE
  5
8A
100
AcDbEntity
  8
pcb
  6
ByLayer
 62
  256
370
   -1
100
AcDbLine
 10
8
 20
269
 11
-72
 21
269
  0
LINE
  5
8B
100
AcDbEntity
  8
pcb
  6
ByLayer
 62
  256
370
   -1
100
AcDbLine
 10
-72.00000000000001
 20
169
 11
-72
 21
269
  0
CIRCLE
  5
8C
100
AcDbEntity
  8
pcb
  6
ByLayer
 62
  256
370
   -1
100
AcDbCircle
 10
-68
 20
259
 40
1.4
  0
CIRCLE
  5
8D
100
AcDbEntity
  8
pcb
  6
ByLayer
 62
  256
370
   -1
100
AcDbCircle
 10
-10
 20
259
 40
1.4
  0
CIRCLE
  5
8E
100
AcDbEntity
  8
pcb
  6
ByLayer
 62
  256
370
   -1
100
AcDbCircle
 10
-10.00000000000003
 20
173
 40
1.4
  0
CIRCLE
  5
8F
100
AcDbEntity
  8
pcb
  6
ByLayer
 62
  256
370
   -1
100
AcDbCircle
 10
-68.00000000000001
 20
173
 40
1.4
  0
LINE
  5
90
100
AcDbEntity
  8
pcb
  6
ByLayer
 62
  256
370
   -1
100
AcDbLine
 10
-75.00000000000001
 20
197
 11
-75
 21
269
  0
LINE
  5
91
100
AcDbEntity
  8
pcb
  6
ByLayer
 62
  256
370
   -1
100
AcDbLine
 10
-75.00000000000001
 20
197
 11
-108
 21
197
  0
LINE
  5
92
100
AcDbEntity
  8
pcb
  6
ByLayer
 62
  256
370
   -1
100
AcDbLine
 10
-75
 20
269
 11
-108
 21
269
  0
LINE
  5
93
100
AcDbEntity
  8
pcb
  6
ByLayer
 62
  256
370
   -1
100
AcDbLine
 10
-108
 20
269
 11
-108
 21
197
  0
CIRCLE
  5
94
100
AcDbEntity
  8
pcb
  6
ByLayer
 62
  256
370
   -1
100
AcDbCircle
 10
-105
 20
266
 40
1.4
  0
CIRCLE
  5
95
100
AcDbEntity
  8
pcb
  6
ByLayer
 62
  256
370
   -1
100
AcDbCircle
 10
-105
 20
200
 40
1.4
  0
CIRCLE
  5
96
100
AcDbEntity
  8
pcb
  6
ByLayer
 62
  256
370
   -1
100
AcDbCircle
 10
-78
 20
266
 40
1.4
  0
CIRCLE
  5
97
100
AcDbEntity
  8
pcb
  6
ByLayer
 62
  256
370
   -1
100
AcDbCircle
 10
-78.00000000000001
 20
200
 40
1.4
  0
LINE
  5
98
100
AcDbEntity
  8
pcb
  6
ByLayer
 62
  256
370
   -1
100
AcDbLine
 10
-83.36200000000001
 20
194
 11
-83.36200000000001
 21
169.362
  0
LINE
  5
99
100
AcDbEntity
  8
pcb
  6
ByLayer
 62
  256
370
   -1
100
AcDbLine
 10
-83.36200000000001
 20
169.362
 11
-108
 21
169.3620000000001
  0
LINE
  5
9A
100
AcDbEntity
  8
pcb
  6
ByLayer
 62
  256
370
   -1
100
AcDbLine
 10
-108
 20
169.3620000000001
 11
-108
 21
194
  0
LINE
  5
9B
100
AcDbEntity
  8
pcb
  6
ByLayer
 62
  256
370
   -1
100
AcDbLine
 10
-108
 20
194
 11
-83.36200000000001
 21
194
  0
CIRCLE
  5
9C
100
AcDbEntity
  8
pcb
  6
ByLayer
 62
  256
370
   -1
100
AcDbCircle
 10
-105.206
 20
191.206
 40
1.099999999999994
  0
CIRCLE
  5
9D
100
AcDbEntity
  8
pcb
  6
ByLayer
 62
  256
370
   -1
100
AcDbCircle
 10
-105.206
 20
172.156
 40
1.099999999999994
  0
LINE
  5
9E
100
AcDbEntity
  8
0
  6
ByLayer
 62
  256
370
   -1
100
AcDbLine
 10
-50
 20
305
 11
-7.5
 21
305
  0
LINE
  5
9F
100
AcDbEntity
  8
0
  6
ByLayer
 62
  256
370
   -1
100
AcDbLine
 10
-50
 20
305
 11
-92.5
 21
305
  0
CIRCLE
  5
A0
100
AcDbEntity
  8
0
  6
ByLayer
 62
  256
370
   -1
100
AcDbCircle
 10
-7.5
 20
305
 40
1.55
  0
CIRCLE
  5
A1
100
AcDbEntity
  8
0
  6
ByLayer
 62
  256
370
   -1
100
AcDbCircle
 10
-92.5
 20
305
 40
1.55
  0
LINE
  5
A2
100
AcDbEntity
  8
0
  6
ByLayer
 62
  256
370
   -1
100
AcDbLine
 10
-50
 20
305
 11
-50.00000000000001
 21
103
  0
LINE
  5
A3
100
AcDbEntity
  8
0
  6
ByLayer
 62
  256
370
   -1
100
AcDbLine
 10
-50.00000000000001
 20
103
 11
-75.00000000000001
 21
103
  0
LINE
  5
A4
100
AcDbEntity
  8
0
  6
ByLayer
 62
  256
370
   -1
100
AcDbLine
 10
-50.00000000000001
 20
103
 11
-25.00000000000001
 21
103
  0
CIRCLE
  5
A5
100
AcDbEntity
  8
0
  6
ByLayer
 62
  256
370
   -1
100
AcDbCircle
 10
-75.00000000000001
 20
103
 40
1.55
  0
CIRCLE
  5
A6
100
AcDbEntity
  8
0
  6
ByLayer
 62
  256
370
   -1
100
AcDbCircle
 10
-25.00000000000001
 20
103
 40
1.55
  0
LINE
  5
A7
100
AcDbEntity
  8
0
  6
ByLayer
 62
  256
370
   -1
100
AcDbLine
 10
-50
 20
300
 11
-86.5
 21
300
  0
LINE
  5
A8
100
AcDbEntity
  8
0
  6
ByLayer
 62
  256
370
   -1
100
AcDbLine
 10
-50
 20
300
 11
-13.5
 21
300
  0
LINE
  5
A9
100
AcDbEntity
  8
0
  6
ByLayer
 62
  256
370
   -1
100
AcDbLine
 10
-86.5
 20
300
 11
-86.5
 21
310
  0
LINE
  5
AA
100
AcDbEntity
  8
0
  6
ByLayer
 62
  256
370
   -1
100
AcDbLine
 10
-13.5
 20
300
 11
-13.5
 21
310
  0
LINE
  5
AB
100
AcDbEntity
  8
0
  6
ByLayer
 62
  256
370
   -1
100
AcDbLine
 10
-96.5
 20
310
 11
-86.5
 21
310
  0
LINE
  5
AC
100
AcDbEntity
  8
0
  6
ByLayer
 62
  256
370
   -1
100
AcDbLine
 10
-13.5
 20
310
 11
-3.5
 21
310
  0
LINE
  5
AD
100
AcDbEntity
  8
0
  6
ByLayer
 62
  256
370
   -1
100
AcDbLine
 10
60
 20
100
 11
90
 21
100
  0
LINE
  5
AE
100
AcDbEntity
  8
0
  6
ByLayer
 62
  256
370
   -1
100
AcDbLine
 10
90
 20
100
 11
90
 21
110
  0
LINE
  5
AF
100
AcDbEntity
  8
0
  6
ByLayer
 62
  256
370
   -1
100
AcDbLine
 10
60
 20
100
 11
60
 21
110
  0
LINE
  5
B0
100
AcDbEntity
  8
0
  6
ByLayer
 62
  256
370
   -1
100
AcDbLine
 10
90
 20
110
 11
79.58110933998418
 21
169.0884651807325
  0
LINE
  5
B1
100
AcDbEntity
  8
0
  6
ByLayer
 62
  256
370
   -1
100
AcDbLine
 10
79.58110933998418
 20
169.0884651807325
 11
59.58110933998418
 21
169.0884651807325
  0
LINE
  5
B2
100
AcDbEntity
  8
0
  6
ByLayer
 62
  256
370
   -1
100
AcDbLine
 10
60
 20
110
 11
59.58110933998418
 21
169.0884651807325
  0
LINE
  5
B3
100
AcDbEntity
  8
0
  6
ByLayer
 62
  256
370
   -1
100
AcDbLine
 10
75
 20
100
 11
76.5
 21
100
  0
LINE
  5
B4
100
AcDbEntity
  8
0
  6
ByLayer
 62
  256
370
   -1
100
AcDbLine
 10
75
 20
100
 11
73.5
 21
100
  0
LINE
  5
B5
100
AcDbEntity
  8
0
  6
ByLayer
 62
  256
370
   -1
100
AcDbLine
 10
79.58110933998418
 20
169.0884651807325
 11
80.10205387298497
 21
166.1340419216959
  0
LINE
  5
B6
100
AcDbEntity
  8
0
  6
ByLayer
 62
  256
370
   -1
100
AcDbLine
 10
79.58110933998418
 20
169.0884651807325
 11
81.83853564965428
 21
156.2859643915738
  0
LINE
  5
B7
100
AcDbEntity
  8
0
  6
ByLayer
 62
  256
370
   -1
100
AcDbLine
 10
80.10205387298497
 20
166.1340419216959
 11
83.0564771320216
 21
166.6549864546967
  0
LINE
  5
B8
100
AcDbEntity
  8
0
  6
ByLayer
 62
  256
370
   -1
100
AcDbLine
 10
84.09596195932437
 20
143.4834636024151
 11
83.57501742632358
 21
146.4378868614517
  0
LINE
  5
B9
100
AcDbEntity
  8
0
  6
ByLayer
 62
  256
370
   -1
100
AcDbLine
 10
83.57501742632358
 20
146.4378868614517
 11
86.52944068536021
 21
146.9588313944525
  0
LINE
  5
BA
100
AcDbEntity
  8
0
  6
ByLayer
 62
  256
370
   -1
100
AcDbLine
 10
83.0564771320216
 20
166.6549864546967
 11
83.92471802035625
 21
161.7309476896357
  0
LINE
  5
BB
100
AcDbEntity
  8
0
  6
ByLayer
 62
  256
370
   -1
100
AcDbLine
 10
86.52944068536021
 20
146.9588313944525
 11
85.66119979702556
 21
151.8828701595135
  0
LINE
  5
BC
100
AcDbEntity
  8
0
  6
ByLayer
 62
  256
370
   -1
100
AcDbLine
 10
83.92471802035625
 20
161.7309476896357
 11
80.97029476131962
 21
161.2100031566349
  0
LINE
  5
BD
100
AcDbEntity
  8
0
  6
ByLayer
 62
  256
370
   -1
100
AcDbLine
 10
85.66119979702556
 20
151.8828701595135
 11
82.70677653798893
 21
151.3619256265127
  0
LINE
  5
BE
100
AcDbEntity
  8
0
  6
ByLayer
 62
  256
370
   -1
100
AcDbLine
 10
81.83853564965428
 20
156.2859643915738
 11
81.57806338315388
 21
157.7631760210921
  0
LINE
  5
BF
100
AcDbEntity
  8
cut
  6
ByLayer
 62
  256
370
   -1
100
AcDbLine
 10
63
 20
100
 11
63
 21
97
  0
LINE
  5
C0
100
AcDbEntity
  8
cut
  6
ByLayer
 62
  256
370
   -1
100
AcDbLine
 10
63
 20
97
 11
70
 21
97
  0
LINE
  5
C1
100
AcDbEntity
  8
cut
  6
ByLayer
 62
  256
370
   -1
100
AcDbLine
 10
70
 20
97
 11
70
 21
100
  0
LINE
  5
C2
100
AcDbEntity
  8
cut
  6
ByLayer
 62
  256
370
   -1
100
AcDbLine
 10
70
 20
100
 11
73.5
 21
100
  0
LINE
  5
C3
100
AcDbEntity
  8
cut
  6
ByLayer
 62
  256
370
   -1
100
AcDbLine
 10
87
 20
100
 11
87
 21
97
  0
LINE
  5
C4
100
AcDbEntity
  8
cut
  6
ByLayer
 62
  256
370
   -1
100
AcDbLine
 10
87
 20
97
 11
80
 21
97
  0
LINE
  5
C5
100
AcDbEntity
  8
cut
  6
ByLayer
 62
  256
370
   -1
100
AcDbLine
 10
80
 20
97
 11
80
 21
100
  0
LINE
  5
C6
100
AcDbEntity
  8
cut
  6
ByLayer
 62
  256
370
   -1
100
AcDbLine
 10
80
 20
100
 11
76.5
 21
100
  0
LINE
  5
C7
100
AcDbEntity
  8
cut
  6
ByLayer
 62
  256
370
   -1
100
AcDbLine
 10
90
 20
110
 11
83.57501742632358
 21
146.4378868614517
  0
LINE
  5
C8
100
AcDbEntity
  8
cut
  6
ByLayer
 62
  256
370
   -1
100
AcDbLine
 10
83.57501742632358
 20
146.4378868614517
 11
86.52944068536021
 21
146.9588313944525
  0
LINE
  5
C9
100
AcDbEntity
  8
cut
  6
ByLayer
 62
  256
370
   -1
100
AcDbLine
 10
86.52944068536021
 20
146.9588313944525
 11
85.66119979702556
 21
151.8828701595135
  0
LINE
  5
CA
100
AcDbEntity
  8
cut
  6
ByLayer
 62
  256
370
   -1
100
AcDbLine
 10
85.66119979702556
 20
151.8828701595135
 11
82.70677653798893
 21
151.3619256265127
  0
LINE
  5
CB
100
AcDbEntity
  8
cut
  6
ByLayer
 62
  256
370
   -1
100
AcDbLine
 10
80.97029476131962
 20
161.2100031566349
 11
83.92471802035625
 21
161.7309476896357
  0
LINE
  5
CC
100
AcDbEntity
  8
cut
  6
ByLayer
 62
  256
370
   -1
100
AcDbLine
 10
83.92471802035625
 20
161.7309476896357
 11
83.0564771320216
 21
166.6549864546967
  0
LINE
  5
CD
100
AcDbEntity
  8
cut
  6
ByLayer
 62
  256
370
   -1
100
AcDbLine
 10
83.0564771320216
 20
166.6549864546967
 11
80.10205387298497
 21
166.1340419216959
  0
LINE
  5
CE
100
AcDbEntity
  8
cut
  6
ByLayer
 62
  256
370
   -1
100
AcDbLine
 10
-86.5
 20
310
 11
-86.5
 21
300
  0
LINE
  5
CF
100
AcDbEntity
  8
cut
  6
ByLayer
 62
  256
370
   -1
100
AcDbLine
 10
-86.5
 20
300
 11
-13.5
 21
300
  0
LINE
  5
D0
100
AcDbEntity
  8
pcb
  6
ByLayer
 62
  256
370
   -1
100
AcDbLine
 10
67
 20
175
 11
67
 21
199
  0
LINE
  5
D1
100
AcDbEntity
  8
pcb
  6
ByLayer
 62
  256
370
   -1
100
AcDbLine
 10
67
 20
199
 11
92
 21
199
  0
LINE
  5
D2
100
AcDbEntity
  8
pcb
  6
ByLayer
 62
  256
370
   -1
100
AcDbLine
 10
92
 20
199
 11
92
 21
175
  0
LINE
  5
D3
100
AcDbEntity
  8
pcb
  6
ByLayer
 62
  256
370
   -1
100
AcDbLine
 10
67
 20
175
 11
92
 21
175
  0
CIRCLE
  5
D4
100
AcDbEntity
  8
pcb
  6
ByLayer
 62
  256
370
   -1
100
AcDbCircle
 10
69
 20
197
 40
1.1
  0
CIRCLE
  5
D5
100
AcDbEntity
  8
pcb
  6
ByLayer
 62
  256
370
   -1
100
AcDbCircle
 10
90
 20
197
 40
1.1
  0
CIRCLE
  5
D6
100
AcDbEntity
  8
pcb
  6
ByLayer
 62
  256
370
   -1
100
AcDbCircle
 10
69
 20
183.5
 40
1.1
  0
CIRCLE
  5
D7
100
AcDbEntity
  8
pcb
  6
ByLayer
 62
  256
370
   -1
100
AcDbCircle
 10
90
 20
183.5
 40
1.1
  0
LINE
  5
D8
100
AcDbEntity
  8
pcb
  6
ByLayer
 62
  256
370
   -1
100
AcDbLine
 10
69
 20
177
 11
89
 21
177
  0
LINE
  5
D9
100
AcDbEntity
  8
0
  6
ByLayer
 62
  256
370
   -1
100
AcDbLine
 10
99
 20
200
 11
60
 21
200
  0
LINE
  5
DA
100
AcDbEntity
  8
0
  6
ByLayer
 62
  256
370
   -1
100
AcDbLine
 10
60
 20
200
 11
60
 21
174
  0
LINE
  5
DB
100
AcDbEntity
  8
0
  6
ByLayer
 62
  256
370
   -1
100
AcDbLine
 10
60
 20
174
 11
99
 21
174
  0
LINE
  5
DC
100
AcDbEntity
  8
0
  6
ByLayer
 62
  256
370
   -1
100
AcDbLine
 10
99
 20
174
 11
99
 21
200
  0
LINE
  5
DD
100
AcDbEntity
  8
0
  6
ByLayer
 62
  256
370
   -1
100
AcDbLine
 10
60
 20
187
 11
63.5
 21
187
  0
LINE
  5
DE
100
AcDbEntity
  8
0
  6
ByLayer
 62
  256
370
   -1
100
AcDbLine
 10
99
 20
187
 11
95.5
 21
187
  0
CIRCLE
  5
DF
100
AcDbEntity
  8
0
  6
ByLayer
 62
  256
370
   -1
100
AcDbCircle
 10
63.5
 20
187
 40
1.6
  0
CIRCLE
  5
E0
100
AcDbEntity
  8
0
  6
ByLayer
 62
  256
370
   -1
100
AcDbCircle
 10
95.5
 20
187
 40
1.6
  0
LINE
  5
E1
100
AcDbEntity
  8
cut
  6
ByLayer
 62
  256
370
   -1
100
AcDbLine
 10
62
 20
197
 11
65
 21
197
  0
LINE
  5
E2
100
AcDbEntity
  8
cut
  6
ByLayer
 62
  256
370
   -1
100
AcDbLine
 10
65
 20
197
 11
65
 21
192
  0
LINE
  5
E3
100
AcDbEntity
  8
cut
  6
ByLayer
 62
  256
370
   -1
100
AcDbLine
 10
65
 20
192
 11
62
 21
192
  0
LINE
  5
E4
100
AcDbEntity
  8
cut
  6
ByLayer
 62
  256
370
   -1
100
AcDbLine
 10
62
 20
192
 11
62
 21
197
  0
LINE
  5
E5
100
AcDbEntity
  8
cut
  6
ByLayer
 62
  256
370
   -1
100
AcDbLine
 10
62
 20
177
 11
65
 21
177
  0
LINE
  5
E6
100
AcDbEntity
  8
cut
  6
ByLayer
 62
  256
370
   -1
100
AcDbLine
 10
65
 20
177
 11
65
 21
182
  0
LINE
  5
E7
100
AcDbEntity
  8
cut
  6
ByLayer
 62
  256
370
   -1
100
AcDbLine
 10
65
 20
182
 11
62
 21
182
  0
LINE
  5
E8
100
AcDbEntity
  8
cut
  6
ByLayer
 62
  256
370
   -1
100
AcDbLine
 10
62
 20
182
 11
62
 21
177
  0
LINE
  5
E9
100
AcDbEntity
  8
cut
  6
ByLayer
 62
  256
370
   -1
100
AcDbLine
 10
97
 20
182
 11
94
 21
182
  0
LINE
  5
EA
100
AcDbEntity
  8
cut
  6
ByLayer
 62
  256
370
   -1
100
AcDbLine
 10
94
 20
182
 11
94
 21
177
  0
LINE
  5
EB
100
AcDbEntity
  8
cut
  6
ByLayer
 62
  256
370
   -1
100
AcDbLine
 10
94
 20
177
 11
97
 21
177
  0
LINE
  5
EC
100
AcDbEntity
  8
cut
  6
ByLayer
 62
  256
370
   -1
100
AcDbLine
 10
97
 20
177
 11
97
 21
182
  0
LINE
  5
ED
100
AcDbEntity
  8
cut
  6
ByLayer
 62
  256
370
   -1
100
AcDbLine
 10
94
 20
197
 11
97
 21
197
  0
LINE
  5
EE
100
AcDbEntity
  8
cut
  6
ByLayer
 62
  256
370
   -1
100
AcDbLine
 10
97
 20
197
 11
97
 21
192
  0
LINE
  5
EF
100
AcDbEntity
  8
cut
  6
ByLayer
 62
  256
370
   -1
100
AcDbLine
 10
97
 20
192
 11
94
 21
192
  0
LINE
  5
F0
100
AcDbEntity
  8
cut
  6
ByLayer
 62
  256
370
   -1
100
AcDbLine
 10
94
 20
192
 11
94
 21
197
  0
CIRCLE
  5
F1
100
AcDbEntity
  8
cut
  6
ByLayer
 62
  256
370
   -1
100
AcDbCircle
 10
63.5
 20
187
 40
1.6
  0
CIRCLE
  5
F2
100
AcDbEntity
  8
cut
  6
ByLayer
 62
  256
370
   -1
100
AcDbCircle
 10
95.5
 20
187
 40
1.6
  0
CIRCLE
  5
F3
100
AcDbEntity
  8
cut
  6
ByLayer
 62
  256
370
   -1
100
AcDbCircle
 10
69
 20
197
 40
1.1
  0
CIRCLE
  5
F4
100
AcDbEntity
  8
cut
  6
ByLayer
 62
  256
370
   -1
100
AcDbCircle
 10
90
 20
197
 40
1.1
  0
CIRCLE
  5
F5
100
AcDbEntity
  8
cut
  6
ByLayer
 62
  256
370
   -1
100
AcDbCircle
 10
90
 20
183.5
 40
1.1
  0
CIRCLE
  5
F6
100
AcDbEntity
  8
cut
  6
ByLayer
 62
  256
370
   -1
100
AcDbCircle
 10
69
 20
183.5
 40
1.1
  0
LINE
  5
F7
100
AcDbEntity
  8
0
  6
ByLayer
 62
  256
370
   -1
100
AcDbLine
 10
-50
 20
167
 11
-67.5
 21
167
  0
LINE
  5
F8
100
AcDbEntity
  8
0
  6
ByLayer
 62
  256
370
   -1
100
AcDbLine
 10
-50
 20
167
 11
-32.5
 21
167
  0
LINE
  5
F9
100
AcDbEntity
  8
0
  6
ByLayer
 62
  256
370
   -1
100
AcDbLine
 10
-32.5
 20
167
 11
-32.5
 21
164
  0
LINE
  5
FA
100
AcDbEntity
  8
0
  6
ByLayer
 62
  256
370
   -1
100
AcDbLine
 10
-67.5
 20
167
 11
-67.5
 21
164
  0
LINE
  5
FB
100
AcDbEntity
  8
0
  6
ByLayer
 62
  256
370
   -1
100
AcDbLine
 10
-32.5
 20
164
 11
-32.5
 21
157
  0
LINE
  5
FC
100
AcDbEntity
  8
0
  6
ByLayer
 62
  256
370
   -1
100
AcDbLine
 10
-67.5
 20
164
 11
-67.5
 21
157
  0
LINE
  5
FD
100
AcDbEntity
  8
0
  6
ByLayer
 62
  256
370
   -1
100
AcDbLine
 10
-67.5
 20
157
 11
-67.5
 21
147
  0
LINE
  5
FE
100
AcDbEntity
  8
0
  6
ByLayer
 62
  256
370
   -1
100
AcDbLine
 10
-67.5
 20
147
 11
-67.5
 21
140
  0
LINE
  5
FF
100
AcDbEntity
  8
0
  6
ByLayer
 62
  256
370
   -1
100
AcDbLine
 10
-32.5
 20
147
 11
-32.5
 21
140
  0
LINE
  5
100
100
AcDbEntity
  8
0
  6
ByLayer
 62
  256
370
   -1
100
AcDbLine
 10
-32.5
 20
164
 11
-35.5
 21
164
  0
LINE
  5
101
100
AcDbEntity
  8
0
  6
ByLayer
 62
  256
370
   -1
100
AcDbLine
 10
-32.5
 20
157
 11
-35.5
 21
157
  0
LINE
  5
102
100
AcDbEntity
  8
0
  6
ByLayer
 62
  256
370
   -1
100
AcDbLine
 10
-32.5
 20
147
 11
-35.5
 21
147
  0
LINE
  5
103
100
AcDbEntity
  8
0
  6
ByLayer
 62
  256
370
   -1
100
AcDbLine
 10
-32.5
 20
140
 11
-35.5
 21
140
  0
LINE
  5
104
100
AcDbEntity
  8
0
  6
ByLayer
 62
  256
370
   -1
100
AcDbLine
 10
-67.5
 20
164
 11
-64.5
 21
164
  0
LINE
  5
105
100
AcDbEntity
  8
0
  6
ByLayer
 62
  256
370
   -1
100
AcDbLine
 10
-67.5
 20
157
 11
-64.5
 21
157
  0
LINE
  5
106
100
AcDbEntity
  8
0
  6
ByLayer
 62
  256
370
   -1
100
AcDbLine
 10
-67.5
 20
147
 11
-64.5
 21
147
  0
LINE
  5
107
100
AcDbEntity
  8
0
  6
ByLayer
 62
  256
370
   -1
100
AcDbLine
 10
-67.5
 20
140
 11
-64.5
 21
140
  0
LINE
  5
108
100
AcDbEntity
  8
cut
  6
ByLayer
 62
  256
370
   -1
100
AcDbLine
 10
-32.5
 20
164
 11
-35.5
 21
164
  0
LINE
  5
109
100
AcDbEntity
  8
cut
  6
ByLayer
 62
  256
370
   -1
100
AcDbLine
 10
-35.5
 20
164
 11
-35.5
 21
157
  0
LINE
  5
10A
100
AcDbEntity
  8
cut
  6
ByLayer
 62
  256
370
   -1
100
AcDbLine
 10
-32.5
 20
157
 11
-32.5
 21
164
  0
LINE
  5
10B
100
AcDbEntity
  8
cut
  6
ByLayer
 62
  256
370
   -1
100
AcDbLine
 10
-32.5
 20
147
 11
-35.5
 21
147
  0
LINE
  5
10C
100
AcDbEntity
  8
cut
  6
ByLayer
 62
  256
370
   -1
100
AcDbLine
 10
-35.5
 20
157
 11
-32.5
 21
157
  0
LINE
  5
10D
100
AcDbEntity
  8
cut
  6
ByLayer
 62
  256
370
   -1
100
AcDbLine
 10
-32.5
 20
147
 11
-32.5
 21
140
  0
LINE
  5
10E
100
AcDbEntity
  8
cut
  6
ByLayer
 62
  256
370
   -1
100
AcDbLine
 10
-32.5
 20
140
 11
-35.5
 21
140
  0
LINE
  5
10F
100
AcDbEntity
  8
cut
  6
ByLayer
 62
  256
370
   -1
100
AcDbLine
 10
-35.5
 20
140
 11
-35.5
 21
147
  0
LINE
  5
110
100
AcDbEntity
  8
cut
  6
ByLayer
 62
  256
370
   -1
100
AcDbLine
 10
-67.5
 20
164
 11
-64.5
 21
164
  0
LINE
  5
111
100
AcDbEntity
  8
cut
  6
ByLayer
 62
  256
370
   -1
100
AcDbLine
 10
-64.5
 20
164
 11
-64.5
 21
157
  0
LINE
  5
112
100
AcDbEntity
  8
cut
  6
ByLayer
 62
  256
370
   -1
100
AcDbLine
 10
-64.5
 20
157
 11
-67.5
 21
157
  0
LINE
  5
113
100
AcDbEntity
  8
cut
  6
ByLayer
 62
  256
370
   -1
100
AcDbLine
 10
-67.5
 20
157
 11
-67.5
 21
164
  0
LINE
  5
114
100
AcDbEntity
  8
cut
  6
ByLayer
 62
  256
370
   -1
100
AcDbLine
 10
-67.5
 20
147
 11
-64.5
 21
147
  0
LINE
  5
115
100
AcDbEntity
  8
cut
  6
ByLayer
 62
  256
370
   -1
100
AcDbLine
 10
-64.5
 20
147
 11
-64.5
 21
140
  0
LINE
  5
116
100
AcDbEntity
  8
cut
  6
ByLayer
 62
  256
370
   -1
100
AcDbLine
 10
-64.5
 20
140
 11
-67.5
 21
140
  0
LINE
  5
117
100
AcDbEntity
  8
cut
  6
ByLayer
 62
  256
370
   -1
100
AcDbLine
 10
-67.5
 20
140
 11
-67.5
 21
147
  0
LINE
  5
118
100
AcDbEntity
  8
0
  6
ByLayer
 62
  256
370
   -1
100
AcDbLine
 10
-67.5
 20
157
 11
-66
 21
157
  0
LINE
  5
119
100
AcDbEntity
  8
0
  6
ByLayer
 62
  256
370
   -1
100
AcDbLine
 10
-66
 20
157
 11
-66
 21
162
  0
LINE
  5
11A
100
AcDbEntity
  8
0
  6
ByLayer
 62
  256
370
   -1
100
AcDbLine
 10
-66
 20
157
 11
-66
 21
152
  0
LINE
  5
11B
100
AcDbEntity
  8
0
  6
ByLayer
 62
  256
370
   -1
100
AcDbLine
 10
-35.5
 20
157
 11
-34
 21
157
  0
LINE
  5
11C
100
AcDbEntity
  8
0
  6
ByLayer
 62
  256
370
   -1
100
AcDbLine
 10
-34
 20
157
 11
-34
 21
152
  0
CIRCLE
  5
11D
100
AcDbEntity
  8
cut
  6
ByLayer
 62
  256
370
   -1
100
AcDbCircle
 10
-66
 20
152
 40
1.6
  0
CIRCLE
  5
11E
100
AcDbEntity
  8
cut
  6
ByLayer
 62
  256
370
   -1
100
AcDbCircle
 10
-34
 20
152
 40
1.6
  0
LINE
  5
11F
100
AcDbEntity
  8
cut
  6
ByLayer
 62
  256
370
   -1
100
AcDbLine
 10
-100
 20
296
 11
-85
 21
296
  0
LINE
  5
120
100
AcDbEntity
  8
cut
  6
ByLayer
 62
  256
370
   -1
100
AcDbLine
 10
-85
 20
293
 11
-100
 21
293
  0
LINE
  5
121
100
AcDbEntity
  8
cut
  6
ByLayer
 62
  256
370
   -1
100
AcDbLine
 10
-100
 20
293
 11
-100
 21
296
  0
LINE
  5
122
100
AcDbEntity
  8
cut
  6
ByLayer
 62
  256
370
   -1
100
AcDbLine
 10
-100
 20
274
 11
-100
 21
277
  0
LINE
  5
123
100
AcDbEntity
  8
cut
  6
ByLayer
 62
  256
370
   -1
100
AcDbLine
 10
-100
 20
277
 11
-85
 21
277
  0
LINE
  5
124
100
AcDbEntity
  8
cut
  6
ByLayer
 62
  256
370
   -1
100
AcDbLine
 10
-85
 20
274
 11
-100
 21
274
  0
LINE
  5
125
100
AcDbEntity
  8
cut
  6
ByLayer
 62
  256
370
   -1
100
AcDbLine
 10
0
 20
296
 11
-15
 21
296
  0
LINE
  5
126
100
AcDbEntity
  8
cut
  6
ByLayer
 62
  256
370
   -1
100
AcDbLine
 10
-15
 20
293
 11
0
 21
293
  0
LINE
  5
127
100
AcDbEntity
  8
cut
  6
ByLayer
 62
  256
370
   -1
100
AcDbLine
 10
0
 20
293
 11
0
 21
296
  0
LINE
  5
128
100
AcDbEntity
  8
cut
  6
ByLayer
 62
  256
370
   -1
100
AcDbLine
 10
-15
 20
293
 11
-20
 21
293
  0
LINE
  5
129
100
AcDbEntity
  8
cut
  6
ByLayer
 62
  256
370
   -1
100
AcDbLine
 10
-20
 20
293
 11
-20
 21
296
  0
LINE
  5
12A
100
AcDbEntity
  8
cut
  6
ByLayer
 62
  256
370
   -1
100
AcDbLine
 10
-20
 20
296
 11
-14
 21
296
  0
LINE
  5
12B
100
AcDbEntity
  8
cut
  6
ByLayer
 62
  256
370
   -1
100
AcDbLine
 10
0
 20
277
 11
-20
 21
277
  0
LINE
  5
12C
100
AcDbEntity
  8
cut
  6
ByLayer
 62
  256
370
   -1
100
AcDbLine
 10
-20
 20
277
 11
-20
 21
274
  0
LINE
  5
12D
100
AcDbEntity
  8
cut
  6
ByLayer
 62
  256
370
   -1
100
AcDbLine
 10
-20
 20
274
 11
0
 21
274
  0
LINE
  5
12E
100
AcDbEntity
  8
cut
  6
ByLayer
 62
  256
370
   -1
100
AcDbLine
 10
0
 20
274
 11
0
 21
277
  0
LINE
  5
12F
100
AcDbEntity
  8
cut
  6
ByLayer
 62
  256
370
   -1
100
AcDbLine
 10
-85
 20
296
 11
-80
 21
296
  0
LINE
  5
130
100
AcDbEntity
  8
cut
  6
ByLayer
 62
  256
370
   -1
100
AcDbLine
 10
-80
 20
296
 11
-80
 21
293
  0
LINE
  5
131
100
AcDbEntity
  8
cut
  6
ByLayer
 62
  256
370
   -1
100
AcDbLine
 10
-80
 20
293
 11
-85
 21
293
  0
LINE
  5
132
100
AcDbEntity
  8
cut
  6
ByLayer
 62
  256
370
   -1
100
AcDbLine
 10
-85
 20
277
 11
-80
 21
277
  0
LINE
  5
133
100
AcDbEntity
  8
cut
  6
ByLayer
 62
  256
370
   -1
100
AcDbLine
 10
-80
 20
277
 11
-80
 21
274
  0
LINE
  5
134
100
AcDbEntity
  8
cut
  6
ByLayer
 62
  256
370
   -1
100
AcDbLine
 10
-80
 20
274
 11
-85
 21
274
  0
LINE
  5
135
100
AcDbEntity
  8
cut
  6
ByLayer
 62
  256
370
   -1
100
AcDbLine
 10
-60
 20
250
 11
-10
 21
250
  0
LINE
  5
136
100
AcDbEntity
  8
cut
  6
ByLayer
 62
  256
370
   -1
100
AcDbLine
 10
-10
 20
250
 11
-10
 21
248
  0
LINE
  5
137
100
AcDbEntity
  8
cut
  6
ByLayer
 62
  256
370
   -1
100
AcDbLine
 10
-10
 20
248
 11
-60
 21
248
  0
LINE
  5
138
100
AcDbEntity
  8
cut
  6
ByLayer
 62
  256
370
   -1
100
AcDbLine
 10
-60
 20
248
 11
-60
 21
250
  0
LINE
  5
139
100
AcDbEntity
  8
cut
  6
ByLayer
 62
  256
370
   -1
100
AcDbLine
 10
-60
 20
245
 11
-10
 21
245
  0
LINE
  5
13A
100
AcDbEntity
  8
cut
  6
ByLayer
 62
  256
370
   -1
100
AcDbLine
 10
-10
 20
245
 11
-10
 21
243
  0
LINE
  5
13B
100
AcDbEntity
  8
cut
  6
ByLayer
 62
  256
370
   -1
100
AcDbLine
 10
-10
 20
243
 11
-60
 21
243
  0
LINE
  5
13C
100
AcDbEntity
  8
cut
  6
ByLayer
 62
  256
370
   -1
100
AcDbLine
 10
-60
 20
243
 11
-60
 21
245
  0
LINE
  5
13D
100
AcDbEntity
  8
cut
  6
ByLayer
 62
  256
370
   -1
100
AcDbLine
 10
-60
 20
240
 11
-10
 21
240
  0
LINE
  5
13E
100
AcDbEntity
  8
cut
  6
ByLayer
 62
  256
370
   -1
100
AcDbLine
 10
-10
 20
240
 11
-10
 21
238
  0
LINE
  5
13F
100
AcDbEntity
  8
cut
  6
ByLayer
 62
  256
370
   -1
100
AcDbLine
 10
-10
 20
238
 11
-60
 21
238
  0
LINE
  5
140
100
AcDbEntity
  8
cut
  6
ByLayer
 62
  256
370
   -1
100
AcDbLine
 10
-60
 20
238
 11
-60
 21
240
  0
LINE
  5
141
100
AcDbEntity
  8
cut
  6
ByLayer
 62
  256
370
   -1
100
AcDbLine
 10
-60
 20
235
 11
-10
 21
235
  0
LINE
  5
142
100
AcDbEntity
  8
cut
  6
ByLayer
 62
  256
370
   -1
100
AcDbLine
 10
-10
 20
235
 11
-10
 21
233
  0
LINE
  5
143
100
AcDbEntity
  8
cut
  6
ByLayer
 62
  256
370
   -1
100
AcDbLine
 10
-10
 20
233
 11
-60
 21
233
  0
LINE
  5
144
100
AcDbEntity
  8
cut
  6
ByLayer
 62
  256
370
   -1
100
AcDbLine
 10
-60
 20
233
 11
-60
 21
235
  0
LINE
  5
145
100
AcDbEntity
  8
cut
  6
ByLayer
 62
  256
370
   -1
100
AcDbLine
 10
-60
 20
230
 11
-10
 21
230
  0
LINE
  5
146
100
AcDbEntity
  8
cut
  6
ByLayer
 62
  256
370
   -1
100
AcDbLine
 10
-10
 20
230
 11
-10
 21
228
  0
LINE
  5
147
100
AcDbEntity
  8
cut
  6
ByLayer
 62
  256
370
   -1
100
AcDbLine
 10
-10
 20
228
 11
-60
 21
228
  0
LINE
  5
148
100
AcDbEntity
  8
cut
  6
ByLayer
 62
  256
370
   -1
100
AcDbLine
 10
-60
 20
228
 11
-60
 21
230
  0
LINE
  5
149
100
AcDbEntity
  8
cut
  6
ByLayer
 62
  256
370
   -1
100
AcDbLine
 10
-60
 20
225
 11
-10
 21
225
  0
LINE
  5
14A
100
AcDbEntity
  8
cut
  6
ByLayer
 62
  256
370
   -1
100
AcDbLine
 10
-10
 20
225
 11
-10
 21
223
  0
LINE
  5
14B
100
AcDbEntity
  8
cut
  6
ByLayer
 62
  256
370
   -1
100
AcDbLine
 10
-10
 20
223
 11
-60
 21
223
  0
LINE
  5
14C
100
AcDbEntity
  8
cut
  6
ByLayer
 62
  256
370
   -1
100
AcDbLine
 10
-60
 20
223
 11
-60
 21
225
  0
LINE
  5
14D
100
AcDbEntity
  8
cut
  6
ByLayer
 62
  256
370
   -1
100
AcDbLine
 10
-60
 20
220
 11
-10
 21
220
  0
LINE
  5
14E
100
AcDbEntity
  8
cut
  6
ByLayer
 62
  256
370
   -1
100
AcDbLine
 10
-10
 20
220
 11
-10
 21
218
  0
LINE
  5
14F
100
AcDbEntity
  8
cut
  6
ByLayer
 62
  256
370
   -1
100
AcDbLine
 10
-10
 20
218
 11
-60
 21
218
  0
LINE
  5
150
100
AcDbEntity
  8
cut
  6
ByLayer
 62
  256
370
   -1
100
AcDbLine
 10
-60
 20
218
 11
-60
 21
220
  0
LINE
  5
151
100
AcDbEntity
  8
cut
  6
ByLayer
 62
  256
370
   -1
100
AcDbLine
 10
-60
 20
215
 11
-10
 21
215
  0
LINE
  5
152
100
AcDbEntity
  8
cut
  6
ByLayer
 62
  256
370
   -1
100
AcDbLine
 10
-10
 20
215
 11
-10
 21
213
  0
LINE
  5
153
100
AcDbEntity
  8
cut
  6
ByLayer
 62
  256
370
   -1
100
AcDbLine
 10
-10
 20
213
 11
-60
 21
213
  0
LINE
  5
154
100
AcDbEntity
  8
cut
  6
ByLayer
 62
  256
370
   -1
100
AcDbLine
 10
-60
 20
213
 11
-60
 21
215
  0
LINE
  5
155
100
AcDbEntity
  8
cut
  6
ByLayer
 62
  256
370
   -1
100
AcDbLine
 10
-60
 20
210
 11
-10
 21
210
  0
LINE
  5
156
100
AcDbEntity
  8
cut
  6
ByLayer
 62
  256
370
   -1
100
AcDbLine
 10
-10
 20
210
 11
-10
 21
208
  0
LINE
  5
157
100
AcDbEntity
  8
cut
  6
ByLayer
 62
  256
370
   -1
100
AcDbLine
 10
-10
 20
208
 11
-60
 21
208
  0
LINE
  5
158
100
AcDbEntity
  8
cut
  6
ByLayer
 62
  256
370
   -1
100
AcDbLine
 10
-60
 20
208
 11
-60
 21
210
  0
LINE
  5
159
100
AcDbEntity
  8
cut
  6
ByLayer
 62
  256
370
   -1
100
AcDbLine
 10
-60
 20
205
 11
-10
 21
205
  0
LINE
  5
15A
100
AcDbEntity
  8
cut
  6
ByLayer
 62
  256
370
   -1
100
AcDbLine
 10
-10
 20
205
 11
-10
 21
203
  0
LINE
  5
15B
100
AcDbEntity
  8
cut
  6
ByLayer
 62
  256
370
   -1
100
AcDbLine
 10
-10
 20
203
 11
-60
 21
203
  0
LINE
  5
15C
100
AcDbEntity
  8
cut
  6
ByLayer
 62
  256
370
   -1
100
AcDbLine
 10
-60
 20
203
 11
-60
 21
205
  0
LINE
  5
15D
100
AcDbEntity
  8
cut
  6
ByLayer
 62
  256
370
   -1
100
AcDbLine
 10
-60
 20
200
 11
-10
 21
200
  0
LINE
  5
15E
100
AcDbEntity
  8
cut
  6
ByLayer
 62
  256
370
   -1
100
AcDbLine
 10
-10
 20
200
 11
-10
 21
198
  0
LINE
  5
15F
100
AcDbEntity
  8
cut
  6
ByLayer
 62
  256
370
   -1
100
AcDbLine
 10
-10
 20
198
 11
-60
 21
198
  0
LINE
  5
160
100
AcDbEntity
  8
cut
  6
ByLayer
 62
  256
370
   -1
100
AcDbLine
 10
-60
 20
198
 11
-60
 21
200
  0
LINE
  5
161
100
AcDbEntity
  8
cut
  6
ByLayer
 62
  256
370
   -1
100
AcDbLine
 10
-60
 20
195
 11
-10
 21
195
  0
LINE
  5
162
100
AcDbEntity
  8
cut
  6
ByLayer
 62
  256
370
   -1
100
AcDbLine
 10
-10
 20
195
 11
-10
 21
193
  0
LINE
  5
163
100
AcDbEntity
  8
cut
  6
ByLayer
 62
  256
370
   -1
100
AcDbLine
 10
-10
 20
193
 11
-60
 21
193
  0
LINE
  5
164
100
AcDbEntity
  8
cut
  6
ByLayer
 62
  256
370
   -1
100
AcDbLine
 10
-60
 20
193
 11
-60
 21
195
  0
CIRCLE
  5
165
100
AcDbEntity
  8
cut
  6
ByLayer
 62
  256
370
   -1
100
AcDbCircle
 10
-75.00000000000001
 20
103
 40
1.6
  0
CIRCLE
  5
166
100
AcDbEntity
  8
cut
  6
ByLayer
 62
  256
370
   -1
100
AcDbCircle
 10
-25.00000000000001
 20
103
 40
1.6
  0
CIRCLE
  5
167
100
AcDbEntity
  8
cut
  6
ByLayer
 62
  256
370
   -1
100
AcDbCircle
 10
-105
 20
266
 40
1.4
  0
CIRCLE
  5
168
100
AcDbEntity
  8
cut
  6
ByLayer
 62
  256
370
   -1
100
AcDbCircle
 10
-78
 20
266
 40
1.4
  0
CIRCLE
  5
169
100
AcDbEntity
  8
cut
  6
ByLayer
 62
  256
370
   -1
100
AcDbCircle
 10
-68
 20
259
 40
1.4
  0
CIRCLE
  5
16A
100
AcDbEntity
  8
cut
  6
ByLayer
 62
  256
370
   -1
100
AcDbCircle
 10
-10
 20
259
 40
1.4
  0
CIRCLE
  5
16B
100
AcDbEntity
  8
cut
  6
ByLayer
 62
  256
370
   -1
100
AcDbCircle
 10
-10.00000000000003
 20
173
 40
1.4
  0
CIRCLE
  5
16C
100
AcDbEntity
  8
cut
  6
ByLayer
 62
  256
370
   -1
100
AcDbCircle
 10
-68.00000000000001
 20
173
 40
1.4
  0
CIRCLE
  5
16D
100
AcDbEntity
  8
cut
  6
ByLayer
 62
  256
370
   -1
100
AcDbCircle
 10
-78.00000000000001
 20
200
 40
1.4
  0
CIRCLE
  5
16E
100
AcDbEntity
  8
cut
  6
ByLayer
 62
  256
370
   -1
100
AcDbCircle
 10
-105
 20
200
 40
1.4
  0
CIRCLE
  5
16F
100
AcDbEntity
  8
cut
  6
ByLayer
 62
  256
370
   -1
100
AcDbCircle
 10
-105.206
 20
191.206
 40
1.2
  0
CIRCLE
  5
170
100
AcDbEntity
  8
cut
  6
ByLayer
 62
  256
370
   -1
100
AcDbCircle
 10
-105.206
 20
172.156
 40
1.2
  0
LINE
  5
171
100
AcDbEntity
  8
cut
  6
ByLayer
 62
  256
370
   -1
100
AcDbLine
 10
-110
 20
310
 11
-110
 21
310
  0
ARC
  5
172
100
AcDbEntity
  8
cut
  6
ByLayer
 62
  256
370
   -1
100
AcDbCircle
 10
-109
 20
310
 40
1
100
AcDbArc
 50
90
 51
180
  0
LINE
  5
173
100
AcDbEntity
  8
cut
  6
ByLayer
 62
  256
370
   -1
100
AcDbLine
 10
-13.5
 20
300
 11
-13.5
 21
310
  0
ARC
  5
174
100
AcDbEntity
  8
cut
  6
ByLayer
 62
  256
370
   -1
100
AcDbCircle
 10
-12.5
 20
310
 40
1
100
AcDbArc
 50
90
 51
180
  0
LINE
  5
175
100
AcDbEntity
  8
cut
  6
ByLayer
 62
  256
370
   -1
100
AcDbLine
 10
-12.5
 20
311
 11
9
 21
311
  0
ARC
  5
176
100
AcDbEntity
  8
cut
  6
ByLayer
 62
  256
370
   -1
100
AcDbCircle
 10
9
 20
310
 40
1
100
AcDbArc
 50
0
 51
90
  0
LINE
  5
177
100
AcDbEntity
  8
cut
  6
ByLayer
 62
  256
370
   -1
100
AcDbLine
 10
-109
 20
311
 11
-87.5
 21
311
  0
LINE
  5
178
100
AcDbEntity
  8
cut
  6
ByLayer
 62
  256
370
   -1
100
AcDbLine
 10
-86.5
 20
310
 11
-86.5
 21
310
  0
ARC
  5
179
100
AcDbEntity
  8
cut
  6
ByLayer
 62
  256
370
   -1
100
AcDbCircle
 10
-87.5
 20
310
 40
1
100
AcDbArc
 50
0
 51
90
  0
LINE
  5
17A
100
AcDbEntity
  8
cut
  6
ByLayer
 62
  256
370
   -1
100
AcDbLine
 10
9.316227766016837
 20
167.7720759220056
 11
-14
 21
160
  0
LINE
  5
17B
100
AcDbEntity
  8
cut
  6
ByLayer
 62
  256
370
   -1
100
AcDbLine
 10
10
 20
310
 11
10
 21
168.7207592200561
  0
ARC
  5
17C
100
AcDbEntity
  8
cut
  6
ByLayer
 62
  256
370
   -1
100
AcDbCircle
 10
9
 20
168.7207592200561
 40
1
100
AcDbArc
 50
288.4349488229223
 51
0
  0
LINE
  5
17D
100
AcDbEntity
  8
cut
  6
ByLayer
 62
  256
370
   -1
100
AcDbLine
 10
-110
 20
169.6930004681647
 11
-110
 21
310
  0
LINE
  5
17E
100
AcDbEntity
  8
cut
  6
ByLayer
 62
  256
370
   -1
100
AcDbLine
 10
-86
 20
160
 11
-109.3511234415884
 21
168.7566712905956
  0
ARC
  5
17F
100
AcDbEntity
  8
cut
  6
ByLayer
 62
  256
370
   -1
100
AcDbCircle
 10
-109
 20
169.6930004681647
 40
1
100
AcDbArc
 50
180
 51
249.4439547804167
  0
LINE
  5
180
100
AcDbEntity
  8
cut
  6
ByLayer
 62
  256
370
   -1
100
AcDbLine
 10
-14
 20
160
 11
-19.92160581211541
 21
90.91459885865356
  0
ARC
  5
181
100
AcDbEntity
  8
cut
  6
ByLayer
 62
  256
370
   -1
100
AcDbCircle
 10
-20.91795246115716
 20
91
 40
1
100
AcDbArc
 50
270
 51
355.1009075462121
  0
LINE
  5
182
100
AcDbEntity
  8
cut
  6
ByLayer
 62
  256
370
   -1
100
AcDbLine
 10
-20.91795246115716
 20
90
 11
-79.08204753884283
 21
90
  0
LINE
  5
183
100
AcDbEntity
  8
cut
  6
ByLayer
 62
  256
370
   -1
100
AcDbLine
 10
-80.0783941878846
 20
90.91459885865356
 11
-86
 21
160
  0
ARC
  5
184
100
AcDbEntity
  8
cut
  6
ByLayer
 62
  256
370
   -1
100
AcDbCircle
 10
-79.08204753884283
 20
91
 40
1
100
AcDbArc
 50
184.8990924537878
 51
270
  0
ARC
  5
185
100
AcDbEntity
  8
cut
  6
ByLayer
 62
  256
370
   -1
100
AcDbCircle
 10
61
 20
199
 40
1
100
AcDbArc
 50
90
 51
180
  0
LINE
  5
186
100
AcDbEntity
  8
cut
  6
ByLayer
 62
  256
370
   -1
100
AcDbLine
 10
98
 20
200
 11
61
 21
200
  0
ARC
  5
187
100
AcDbEntity
  8
cut
  6
ByLayer
 62
  256
370
   -1
100
AcDbCircle
 10
98
 20
199
 40
1
100
AcDbArc
 50
0
 51
90
  0
LINE
  5
188
100
AcDbEntity
  8
cut
  6
ByLayer
 62
  256
370
   -1
100
AcDbLine
 10
99
 20
175
 11
99
 21
199
  0
ARC
  5
189
100
AcDbEntity
  8
cut
  6
ByLayer
 62
  256
370
   -1
100
AcDbCircle
 10
98
 20
175
 40
1
100
AcDbArc
 50
270
 51
0
  0
LINE
  5
18A
100
AcDbEntity
  8
cut
  6
ByLayer
 62
  256
370
   -1
100
AcDbLine
 10
61
 20
174
 11
98
 21
174
  0
LINE
  5
18B
100
AcDbEntity
  8
cut
  6
ByLayer
 62
  256
370
   -1
100
AcDbLine
 10
60
 20
199
 11
60
 21
175
  0
ARC
  5
18C
100
AcDbEntity
  8
cut
  6
ByLayer
 62
  256
370
   -1
100
AcDbCircle
 10
61
 20
175
 40
1
100
AcDbArc
 50
180
 51
270
  0
ARC
  5
18D
100
AcDbEntity
  8
cut
  6
ByLayer
 62
  256
370
   -1
100
AcDbCircle
 10
60.58719082603831
 20
168.0884651807325
 40
1
100
AcDbArc
 50
90
 51
180.3473861047839
  0
LINE
  5
18E
100
AcDbEntity
  8
cut
  6
ByLayer
 62
  256
370
   -1
100
AcDbLine
 10
78.7420097088069
 20
169.0884651807325
 11
60.58719082603831
 21
169.0884651807325
  0
LINE
  5
18F
100
AcDbEntity
  8
cut
  6
ByLayer
 62
  256
370
   -1
100
AcDbLine
 10
80.10205387298497
 20
166.1340419216959
 11
79.72681746181911
 21
168.2621133583994
  0
ARC
  5
190
100
AcDbEntity
  8
cut
  6
ByLayer
 62
  256
370
   -1
100
AcDbCircle
 10
78.7420097088069
 20
168.0884651807325
 40
1
100
AcDbArc
 50
10.00000000000021
 51
90
  0
LINE
  5
191
100
AcDbEntity
  8
cut
  6
ByLayer
 62
  256
370
   -1
100
AcDbLine
 10
59.58720920615631
 20
168.0824021865748
 11
59.99397365497551
 21
100.9939370058423
  0
LINE
  5
192
100
AcDbEntity
  8
cut
  6
ByLayer
 62
  256
370
   -1
100
AcDbLine
 10
60.99395527485753
 20
100
 11
63
 21
100
  0
ARC
  5
193
100
AcDbEntity
  8
cut
  6
ByLayer
 62
  256
370
   -1
100
AcDbCircle
 10
60.99395527485753
 20
101
 40
1
100
AcDbArc
 50
180.3473861047847
 51
270
  0
LINE
  5
194
100
AcDbEntity
  8
cut
  6
ByLayer
 62
  256
370
   -1
100
AcDbLine
 10
89
 20
100
 11
87
 21
100
  0
LINE
  5
195
100
AcDbEntity
  8
cut
  6
ByLayer
 62
  256
370
   -1
100
AcDbLine
 10
90
 20
101
 11
90
 21
110
  0
ARC
  5
196
100
AcDbEntity
  8
cut
  6
ByLayer
 62
  256
370
   -1
100
AcDbCircle
 10
89
 20
101
 40
1
100
AcDbArc
 50
270
 51
0
  0
CIRCLE
  5
197
100
AcDbEntity
  8
cut
  6
ByLayer
 62
  256
370
   -1
100
AcDbCircle
 10
-7.5
 20
306.55
 40
1.6
  0
CIRCLE
  5
198
100
AcDbEntity
  8
cut
  6
ByLayer
 62
  256
370
   -1
100
AcDbCircle
 10
-7.5
 20
303.45
 40
1.6
  0
CIRCLE
  5
199
100
AcDbEntity
  8
cut
  6
ByLayer
 62
  256
370
   -1
100
AcDbCircle
 10
-92.5
 20
306.55
 40
1.6
  0
CIRCLE
  5
19A
100
AcDbEntity
  8
cut
  6
ByLayer
 62
  256
370
   -1
100
AcDbCircle
 10
-92.5
 20
303.4
 40
1.6
  0
LINE
  5
19B
100
AcDbEntity
  8
cut
  6
ByLayer
 62
  256
370
   -1
100
AcDbLine
 10
-94.09999999999999
 20
306.55
 11
-94.09999999999999
 21
303.4
  0
LINE
  5
19C
100
AcDbEntity
  8
cut
  6
ByLayer
 62
  256
370
   -1
100
AcDbLine
 10
-90.90000000000001
 20
306.55
 11
-90.90000000000001
 21
303.4
  0
LINE
  5
19D
100
AcDbEntity
  8
cut
  6
ByLayer
 62
  256
370
   -1
100
AcDbLine
 10
-9.1
 20
306.55
 11
-9.1
 21
303.45
  0
LINE
  5
19E
100
AcDbEntity
  8
cut
  6
ByLayer
 62
  256
370
   -1
100
AcDbLine
 10
-5.9
 20
306.55
 11
-5.9
 21
303.45
  0
LINE
  5
19F
100
AcDbEntity
  8
0
  6
ByLayer
 62
  256
370
   -1
100
AcDbLine
 10
81.57806338315388
 20
157.7631760210921
 11
76.65402461809283
 21
156.8949351327575
  0
LINE
  5
1A0
100
AcDbEntity
  8
0
  6
ByLayer
 62
  256
370
   -1
100
AcDbLine
 10
81.83853564965428
 20
156.2859643915738
 11
82.09900791615468
 21
154.8087527620555
  0
LINE
  5
1A1
100
AcDbEntity
  8
0
  6
ByLayer
 62
  256
370
   -1
100
AcDbLine
 10
82.09900791615468
 20
154.8087527620555
 11
77.17496915109363
 21
153.9405118737209
  0
LINE
  5
1A2
100
AcDbEntity
  8
0
  6
ByLayer
 62
  256
370
   -1
100
AcDbLine
 10
77.17496915109363
 20
153.9405118737209
 11
77.43544141759403
 21
152.4633002442025
  0
LINE
  5
1A3
100
AcDbEntity
  8
0
  6
ByLayer
 62
  256
370
   -1
100
AcDbLine
 10
76.65402461809283
 20
156.8949351327575
 11
76.39355235159243
 21
158.3721467622758
  0
LINE
  5
1A4
100
AcDbEntity
  8
0
  6
ByLayer
 62
  256
370
   -1
100
AcDbLine
 10
75.20535364506921
 20
153.593215518387
 11
73.2357381390448
 21
153.2459191630531
  0
LINE
  5
1A5
100
AcDbEntity
  8
cut
  6
ByLayer
 62
  256
370
   -1
100
AcDbLine
 10
82.70677653798893
 20
151.3619256265127
 11
82.09900791615468
 21
154.8087527620555
  0
LINE
  5
1A6
100
AcDbEntity
  8
cut
  6
ByLayer
 62
  256
370
   -1
100
AcDbLine
 10
82.09900791615468
 20
154.8087527620555
 11
77.17496915109363
 21
153.9405118737209
  0
LINE
  5
1A7
100
AcDbEntity
  8
cut
  6
ByLayer
 62
  256
370
   -1
100
AcDbLine
 10
77.17496915109363
 20
153.9405118737209
 11
77.43544141759403
 21
152.4633002442025
  0
LINE
  5
1A8
100
AcDbEntity
  8
cut
  6
ByLayer
 62
  256
370
   -1
100
AcDbLine
 10
76.39355235159243
 20
158.3721467622758
 11
76.65402461809283
 21
156.8949351327575
  0
LINE
  5
1A9
100
AcDbEntity
  8
cut
  6
ByLayer
 62
  256
370
   -1
100
AcDbLine
 10
76.65402461809283
 20
156.8949351327575
 11
81.57806338315388
 21
157.7631760210921
  0
LINE
  5
1AA
100
AcDbEntity
  8
cut
  6
ByLayer
 62
  256
370
   -1
100
AcDbLine
 10
80.97029476131962
 20
161.2100031566349
 11
81.57806338315388
 21
157.7631760210921
  0
LINE
  5
1AB
100
AcDbEntity
  8
0
  6
ByLayer
 62
  256
370
   -1
100
AcDbLine
 10
73.5
 20
100
 11
73.5
 21
105
  0
LINE
  5
1AC
100
AcDbEntity
  8
0
  6
ByLayer
 62
  256
370
   -1
100
AcDbLine
 10
76.5
 20
100
 11
76.5
 21
105
  0
LINE
  5
1AD
100
AcDbEntity
  8
cut
  6
ByLayer
 62
  256
370
   -1
100
AcDbLine
 10
73.5
 20
100
 11
73.5
 21
105
  0
LINE
  5
1AE
100
AcDbEntity
  8
cut
  6
ByLayer
 62
  256
370
   -1
100
AcDbLine
 10
73.5
 20
105
 11
72
 21
105
  0
LINE
  5
1AF
100
AcDbEntity
  8
cut
  6
ByLayer
 62
  256
370
   -1
100
AcDbLine
 10
78
 20
105
 11
76.5
 21
105
  0
LINE
  5
1B0
100
AcDbEntity
  8
cut
  6
ByLayer
 62
  256
370
   -1
100
AcDbLine
 10
76.5
 20
105
 11
76.5
 21
100
  0
LINE
  5
1B1
100
AcDbEntity
  8
0
  6
ByLayer
 62
  256
370
   -1
100
AcDbLine
 10
76.65402461809283
 20
156.8949351327575
 11
71.72998585303179
 21
156.0266942444229
  0
LINE
  5
1B2
100
AcDbEntity
  8
0
  6
ByLayer
 62
  256
370
   -1
100
AcDbLine
 10
77.17496915109363
 20
153.9405118737209
 11
72.25093038603259
 21
153.0722709853863
  0
LINE
  5
1B3
100
AcDbEntity
  8
cut
  6
ByLayer
 62
  256
370
   -1
100
AcDbLine
 10
76.39355235159243
 20
158.3721467622758
 11
74.03001374436313
 21
157.9553911358752
  0
LINE
  5
1B4
100
AcDbEntity
  8
cut
  6
ByLayer
 62
  256
370
   -1
100
AcDbLine
 10
77.43544141759403
 20
152.4633002442025
 11
75.07190281036473
 21
152.0465446178019
  0
LINE
  5
1B5
100
AcDbEntity
  8
cut
  6
ByLayer
 62
  256
370
   -1
100
AcDbLine
 10
74.03001374436313
 20
157.9553911358752
 11
74.29048601086353
 21
156.4781795063569
  0
LINE
  5
1B6
100
AcDbEntity
  8
cut
  6
ByLayer
 62
  256
370
   -1
100
AcDbLine
 10
75.07190281036473
 20
152.0465446178019
 11
74.81143054386433
 21
153.5237562473202
  0
LINE
  5
1B7
100
AcDbEntity
  8
cut
  6
ByLayer
 62
  256
370
   -1
100
AcDbLine
 10
74.29048601086353
 20
156.4781795063569
 11
71.72998585303179
 21
156.0266942444229
  0
LINE
  5
1B8
100
AcDbEntity
  8
cut
  6
ByLayer
 62
  256
370
   -1
100
AcDbLine
 10
71.72998585303179
 20
156.0266942444229
 11
72.25093038603259
 21
153.0722709853863
  0
LINE
  5
1B9
100
AcDbEntity
  8
cut
  6
ByLayer
 62
  256
370
   -1
100
AcDbLine
 10
72.25093038603259
 20
153.0722709853863
 11
74.81143054386433
 21
153.5237562473202
  0
LINE
  5
1BA
100
AcDbEntity
  8
cut
  6
ByLayer
 62
  256
370
   -1
100
AcDbLine
 10
72
 20
105
 11
72
 21
107.4
  0
LINE
  5
1BB
100
AcDbEntity
  8
cut
  6
ByLayer
 62
  256
370
   -1
100
AcDbLine
 10
78
 20
105
 11
78
 21
107.4
  0
LINE
  5
1BC
100
AcDbEntity
  8
0
  6
ByLayer
 62
  256
370
   -1
100
AcDbLine
 10
73.5
 20
105
 11
73.5
 21
110
  0
LINE
  5
1BD
100
AcDbEntity
  8
0
  6
ByLayer
 62
  256
370
   -1
100
AcDbLine
 10
76.5
 20
105
 11
76.5
 21
110
  0
LINE
  5
1BE
100
AcDbEntity
  8
0
  6
ByLayer
 62
  256
370
   -1
100
AcDbLine
 10
72
 20
107.4
 11
73.5
 21
107.4
  0
LINE
  5
1BF
100
AcDbEntity
  8
cut
  6
ByLayer
 62
  256
370
   -1
100
AcDbLine
 10
72
 20
107.4
 11
73.5
 21
107.4
  0
LINE
  5
1C0
100
AcDbEntity
  8
cut
  6
ByLayer
 62
  256
370
   -1
100
AcDbLine
 10
78
 20
107.4
 11
76.5
 21
107.4
  0
LINE
  5
1C1
100
AcDbEntity
  8
cut
  6
ByLayer
 62
  256
370
   -1
100
AcDbLine
 10
73.5
 20
107.4
 11
73.5
 21
110
  0
LINE
  5
1C2
100
AcDbEntity
  8
cut
  6
ByLayer
 62
  256
370
   -1
100
AcDbLine
 10
73.5
 20
110
 11
76.5
 21
110
  0
LINE
  5
1C3
100
AcDbEntity
  8
cut
  6
ByLayer
 62
  256
370
   -1
100
AcDbLine
 10
76.5
 20
110
 11
76.5
 21
107.4
  0
LINE
  5
1C4
100
AcDbEntity
  8
cut
  6
ByLayer
 62
  256
370
   -1
100
AcDbLine
 10
60
 20
213
 11
60
 21
210
  0
LINE
  5
1C5
100
AcDbEntity
  8
cut
  6
ByLayer
 62
  256
370
   -1
100
AcDbLine
 10
60
 20
210
 11
67
 21
210
  0
LINE
  5
1C6
100
AcDbEntity
  8
cut
  6
ByLayer
 62
  256
370
   -1
100
AcDbLine
 10
67
 20
210
 11
67
 21
213
  0
LINE
  5
1C7
100
AcDbEntity
  8
cut
  6
ByLayer
 62
  256
370
   -1
100
AcDbLine
 10
67
 20
213
 11
70.5
 21
213
  0
LINE
  5
1C8
100
AcDbEntity
  8
cut
  6
ByLayer
 62
  256
370
   -1
100
AcDbLine
 10
84
 20
213
 11
84
 21
210
  0
LINE
  5
1C9
100
AcDbEntity
  8
cut
  6
ByLayer
 62
  256
370
   -1
100
AcDbLine
 10
84
 20
210
 11
77
 21
210
  0
LINE
  5
1CA
100
AcDbEntity
  8
cut
  6
ByLayer
 62
  256
370
   -1
100
AcDbLine
 10
77
 20
210
 11
77
 21
213
  0
LINE
  5
1CB
100
AcDbEntity
  8
cut
  6
ByLayer
 62
  256
370
   -1
100
AcDbLine
 10
77
 20
213
 11
73.5
 21
213
  0
LINE
  5
1CC
100
AcDbEntity
  8
cut
  6
ByLayer
 62
  256
370
   -1
100
AcDbLine
 10
87
 20
223
 11
80.57501742632358
 21
259.4378868614517
  0
LINE
  5
1CD
100
AcDbEntity
  8
cut
  6
ByLayer
 62
  256
370
   -1
100
AcDbLine
 10
80.57501742632358
 20
259.4378868614517
 11
83.52944068536021
 21
259.9588313944525
  0
LINE
  5
1CE
100
AcDbEntity
  8
cut
  6
ByLayer
 62
  256
370
   -1
100
AcDbLine
 10
83.52944068536021
 20
259.9588313944525
 11
82.66119979702556
 21
264.8828701595135
  0
LINE
  5
1CF
100
AcDbEntity
  8
cut
  6
ByLayer
 62
  256
370
   -1
100
AcDbLine
 10
82.66119979702556
 20
264.8828701595135
 11
79.70677653798893
 21
264.3619256265127
  0
LINE
  5
1D0
100
AcDbEntity
  8
cut
  6
ByLayer
 62
  256
370
   -1
100
AcDbLine
 10
77.97029476131962
 20
274.2100031566349
 11
80.92471802035625
 21
274.7309476896357
  0
LINE
  5
1D1
100
AcDbEntity
  8
cut
  6
ByLayer
 62
  256
370
   -1
100
AcDbLine
 10
80.92471802035625
 20
274.7309476896357
 11
80.0564771320216
 21
279.6549864546967
  0
LINE
  5
1D2
100
AcDbEntity
  8
cut
  6
ByLayer
 62
  256
370
   -1
100
AcDbLine
 10
80.0564771320216
 20
279.6549864546967
 11
77.10205387298497
 21
279.1340419216959
  0
ARC
  5
1D3
100
AcDbEntity
  8
cut
  6
ByLayer
 62
  256
370
   -1
100
AcDbCircle
 10
57.58719082603831
 20
281.0884651807325
 40
1
100
AcDbArc
 50
90
 51
180.3473861047839
  0
LINE
  5
1D4
100
AcDbEntity
  8
cut
  6
ByLayer
 62
  256
370
   -1
100
AcDbLine
 10
75.7420097088069
 20
282.0884651807325
 11
57.58719082603831
 21
282.0884651807325
  0
LINE
  5
1D5
100
AcDbEntity
  8
cut
  6
ByLayer
 62
  256
370
   -1
100
AcDbLine
 10
77.10205387298497
 20
279.1340419216959
 11
76.72681746181911
 21
281.2621133583994
  0
ARC
  5
1D6
100
AcDbEntity
  8
cut
  6
ByLayer
 62
  256
370
   -1
100
AcDbCircle
 10
75.7420097088069
 20
281.0884651807325
 40
1
100
AcDbArc
 50
10.00000000000021
 51
90
  0
LINE
  5
1D7
100
AcDbEntity
  8
cut
  6
ByLayer
 62
  256
370
   -1
100
AcDbLine
 10
56.5872092061563
 20
281.0824021865748
 11
56.99397365497552
 21
213.9939370058423
  0
LINE
  5
1D8
100
AcDbEntity
  8
cut
  6
ByLayer
 62
  256
370
   -1
100
AcDbLine
 10
57.99395527485753
 20
213
 11
60
 21
213
  0
ARC
  5
1D9
100
AcDbEntity
  8
cut
  6
ByLayer
 62
  256
370
   -1
100
AcDbCircle
 10
57.99395527485753
 20
214
 40
1
100
AcDbArc
 50
180.3473861047847
 51
270
  0
LINE
  5
1DA
100
AcDbEntity
  8
cut
  6
ByLayer
 62
  256
370
   -1
100
AcDbLine
 10
86
 20
213
 11
84
 21
213
  0
LINE
  5
1DB
100
AcDbEntity
  8
cut
  6
ByLayer
 62
  256
370
   -1
100
AcDbLine
 10
87
 20
214
 11
87
 21
223
  0
ARC
  5
1DC
100
AcDbEntity
  8
cut
  6
ByLayer
 62
  256
370
   -1
100
AcDbCircle
 10
86
 20
214
 40
1
100
AcDbArc
 50
270
 51
0
  0
LINE
  5
1DD
100
AcDbEntity
  8
cut
  6
ByLayer
 62
  256
370
   -1
100
AcDbLine
 10
79.70677653798893
 20
264.3619256265127
 11
79.09900791615468
 21
267.8087527620555
  0
LINE
  5
1DE
100
AcDbEntity
  8
cut
  6
ByLayer
 62
  256
370
   -1
100
AcDbLine
 10
79.09900791615468
 20
267.8087527620555
 11
74.17496915109363
 21
266.9405118737209
  0
LINE
  5
1DF
100
AcDbEntity
  8
cut
  6
ByLayer
 62
  256
370
   -1
100
AcDbLine
 10
74.17496915109363
 20
266.9405118737209
 11
74.43544141759403
 21
265.4633002442025
  0
LINE
  5
1E0
100
AcDbEntity
  8
cut
  6
ByLayer
 62
  256
370
   -1
100
AcDbLine
 10
73.39355235159243
 20
271.3721467622758
 11
73.65402461809283
 21
269.8949351327575
  0
LINE
  5
1E1
100
AcDbEntity
  8
cut
  6
ByLayer
 62
  256
370
   -1
100
AcDbLine
 10
73.65402461809283
 20
269.8949351327575
 11
78.57806338315388
 21
270.7631760210921
  0
LINE
  5
1E2
100
AcDbEntity
  8
cut
  6
ByLayer
 62
  256
370
   -1
100
AcDbLine
 10
77.97029476131962
 20
274.2100031566349
 11
78.57806338315388
 21
270.7631760210921
  0
LINE
  5
1E3
100
AcDbEntity
  8
cut
  6
ByLayer
 62
  256
370
   -1
100
AcDbLine
 10
70.5
 20
213
 11
70.5
 21
218
  0
LINE
  5
1E4
100
AcDbEntity
  8
cut
  6
ByLayer
 62
  256
370
   -1
100
AcDbLine
 10
70.5
 20
218
 11
69
 21
218
  0
LINE
  5
1E5
100
AcDbEntity
  8
cut
  6
ByLayer
 62
  256
370
   -1
100
AcDbLine
 10
75
 20
218
 11
73.5
 21
218
  0
LINE
  5
1E6
100
AcDbEntity
  8
cut
  6
ByLayer
 62
  256
370
   -1
100
AcDbLine
 10
73.5
 20
218
 11
73.5
 21
213
  0
LINE
  5
1E7
100
AcDbEntity
  8
cut
  6
ByLayer
 62
  256
370
   -1
100
AcDbLine
 10
73.39355235159243
 20
271.3721467622758
 11
71.03001374436313
 21
270.9553911358752
  0
LINE
  5
1E8
100
AcDbEntity
  8
cut
  6
ByLayer
 62
  256
370
   -1
100
AcDbLine
 10
74.43544141759403
 20
265.4633002442025
 11
72.07190281036473
 21
265.0465446178018
  0
LINE
  5
1E9
100
AcDbEntity
  8
cut
  6
ByLayer
 62
  256
370
   -1
100
AcDbLine
 10
71.03001374436313
 20
270.9553911358752
 11
71.29048601086353
 21
269.4781795063569
  0
LINE
  5
1EA
100
AcDbEntity
  8
cut
  6
ByLayer
 62
  256
370
   -1
100
AcDbLine
 10
72.07190281036473
 20
265.0465446178018
 11
71.81143054386433
 21
266.5237562473202
  0
LINE
  5
1EB
100
AcDbEntity
  8
cut
  6
ByLayer
 62
  256
370
   -1
100
AcDbLine
 10
71.29048601086353
 20
269.4781795063569
 11
68.72998585303179
 21
269.0266942444229
  0
LINE
  5
1EC
100
AcDbEntity
  8
cut
  6
ByLayer
 62
  256
370
   -1
100
AcDbLine
 10
68.72998585303179
 20
269.0266942444229
 11
69.25093038603259
 21
266.0722709853862
  0
LINE
  5
1ED
100
AcDbEntity
  8
cut
  6
ByLayer
 62
  256
370
   -1
100
AcDbLine
 10
69.25093038603259
 20
266.0722709853862
 11
71.81143054386433
 21
266.5237562473202
  0
LINE
  5
1EE
100
AcDbEntity
  8
cut
  6
ByLayer
 62
  256
370
   -1
100
AcDbLine
 10
69
 20
218
 11
69
 21
220.4
  0
LINE
  5
1EF
100
AcDbEntity
  8
cut
  6
ByLayer
 62
  256
370
   -1
100
AcDbLine
 10
75
 20
218
 11
75
 21
220.4
  0
LINE
  5
1F0
100
AcDbEntity
  8
cut
  6
ByLayer
 62
  256
370
   -1
100
AcDbLine
 10
69
 20
220.4
 11
70.5
 21
220.4
  0
LINE
  5
1F1
100
AcDbEntity
  8
cut
  6
ByLayer
 62
  256
370
   -1
100
AcDbLine
 10
75
 20
220.4
 11
73.5
 21
220.4
  0
LINE
  5
1F2
100
AcDbEntity
  8
cut
  6
ByLayer
 62
  256
370
   -1
100
AcDbLine
 10
70.5
 20
220.4
 11
70.5
 21
223
  0
LINE
  5
1F3
100
AcDbEntity
  8
cut
  6
ByLayer
 62
  256
370
   -1
100
AcDbLine
 10
70.5
 20
223
 11
73.5
 21
223
  0
LINE
  5
1F4
100
AcDbEntity
  8
cut
  6
ByLayer
 62
  256
370
   -1
100
AcDbLine
 10
73.5
 20
223
 11
73.5
 21
220.4
  0
ENDSEC
  0
SECTION
  2
OBJECTS
  0
DICTIONARY
  5
C
330
0
100
AcDbDictionary
281
    1
  3
ACAD_GROUP
350
D
  0
DICTIONARY
  5
D
330
C
100
AcDbDictionary
281
    1
  0
ENDSEC
  0
EOF
